# 3ds Max Wavefront OBJ Exporter v0.97b - (c)2007 guruware
# File Created: 08.10.2013 01:10:50

#
# object face
#

v  -0.0274 0.0000 -0.0250
v  0.2020 0.0000 0.0795
v  0.1570 0.0000 0.1470
v  0.0895 0.0000 0.1920
v  -0.3288 0.1653 -0.0000
v  -0.3030 0.1653 -0.1296
v  -0.3317 0.1653 -0.1415
v  -0.3598 0.1653 -0.0000
v  -0.3030 0.1653 0.1296
v  -0.3317 0.1653 0.1415
v  -0.2295 0.1653 0.2395
v  -0.2515 0.1653 0.2615
v  -0.1196 0.1653 0.3130
v  -0.1315 0.1653 0.3417
v  0.0100 0.1653 0.3388
v  0.0100 0.1653 0.3698
v  0.1396 0.1653 0.3130
v  0.1515 0.1653 0.3417
v  0.2495 0.1653 0.2395
v  0.2715 0.1653 0.2615
v  0.3230 0.1653 0.1296
v  0.3517 0.1653 0.1415
v  0.3488 0.1653 0.0000
v  0.3798 0.1653 0.0000
v  0.3230 0.1653 -0.1296
v  0.3517 0.1653 -0.1415
v  0.2495 0.1653 -0.2395
v  0.2715 0.1653 -0.2615
v  0.1396 0.1653 -0.3130
v  0.1515 0.1653 -0.3417
v  0.0100 0.1653 -0.3388
v  0.0100 0.1653 -0.3698
v  -0.1315 0.1653 -0.3417
v  -0.1196 0.1653 -0.3130
v  0.0128 0.0453 -0.0143
v  -0.1150 0.0453 0.1250
v  -0.0577 0.0453 0.1633
v  0.0100 0.0453 0.1768
v  -0.3030 0.0453 -0.1296
v  -0.2295 0.0453 -0.2395
v  -0.2295 0.1653 -0.2395
v  -0.3288 0.0453 -0.0000
v  -0.3030 0.0453 0.1296
v  -0.2295 0.0453 0.2395
v  -0.1196 0.0453 0.3130
v  0.0100 0.0453 0.3388
v  0.1396 0.0453 0.3130
v  0.2495 0.0453 0.2395
v  0.3230 0.0453 0.1296
v  0.3488 0.0453 0.0000
v  0.3230 0.0453 -0.1296
v  0.2495 0.0453 -0.2395
v  0.1396 0.0453 -0.3130
v  0.0100 0.0453 -0.3388
v  -0.1196 0.0453 -0.3130
v  -0.3317 0.0000 -0.1415
v  -0.2515 0.1653 -0.2615
v  -0.2515 0.0000 -0.2615
v  -0.3598 0.0000 -0.0000
v  -0.3317 0.0000 0.1415
v  -0.2515 0.0000 0.2615
v  -0.1315 0.0000 0.3417
v  0.0100 0.0000 0.3698
v  0.1515 0.0000 0.3417
v  0.2715 0.0000 0.2615
v  0.3517 0.0000 0.1415
v  0.3798 0.0000 0.0000
v  0.3517 0.0000 -0.1415
v  0.2715 0.0000 -0.2615
v  0.1515 0.0000 -0.3417
v  0.0100 0.0000 -0.3698
v  -0.1315 0.0000 -0.3417
v  -0.1370 0.0000 -0.1470
v  -0.0695 0.0000 -0.1920
v  0.0100 0.0000 -0.2079
v  0.0895 0.0000 -0.1920
v  0.1570 0.0000 -0.1470
v  0.2020 0.0000 -0.0795
v  0.2179 0.0000 0.0000
v  0.0100 0.0000 0.2079
v  -0.0695 0.0000 0.1920
v  -0.1370 0.0000 0.1470
v  -0.1820 0.0000 0.0795
v  -0.1979 0.0000 -0.0000
v  -0.1820 0.0000 -0.0795
v  -0.0577 0.0453 -0.1633
v  0.0100 0.0453 -0.1768
v  -0.1150 0.0453 -0.1250
v  -0.1533 0.0453 -0.0677
v  -0.1668 0.0453 -0.0000
v  -0.1533 0.0453 0.0677
v  0.0777 0.0453 0.1633
v  0.1350 0.0453 0.1250
v  0.1733 0.0453 0.0677
v  0.1868 0.0453 0.0000
v  0.1733 0.0453 -0.0677
v  0.1350 0.0453 -0.1250
v  0.0777 0.0453 -0.1633
# 98 vertices

vn 0.0000 -1.0000 -0.0000
vn -0.0000 1.0000 0.0000
vn -0.0000 1.0000 -0.0000
vn 0.0000 1.0000 0.0000
vn 0.0000 1.0000 -0.0000
vn 0.8315 0.0000 0.5556
vn 0.9808 0.0000 0.1951
vn 0.9808 0.0000 -0.1951
vn 0.8315 0.0000 -0.5556
vn 0.5556 0.0000 -0.8315
vn 0.1951 0.0000 -0.9808
vn -0.1951 0.0000 -0.9808
vn -0.5556 0.0000 -0.8315
vn -0.8315 0.0000 -0.5556
vn -0.9808 0.0000 -0.1951
vn -0.9808 0.0000 0.1951
vn -0.8315 0.0000 0.5556
vn -0.5556 0.0000 0.8315
vn -0.1951 0.0000 0.9808
vn 0.1951 0.0000 0.9808
vn 0.5556 0.0000 0.8315
vn -0.9239 0.0000 -0.3827
vn -0.7071 0.0000 -0.7071
vn -1.0000 0.0000 -0.0000
vn -0.9239 0.0000 0.3827
vn -0.7071 0.0000 0.7071
vn -0.3827 0.0000 0.9239
vn 0.0000 0.0000 1.0000
vn 0.3827 0.0000 0.9239
vn 0.7071 0.0000 0.7071
vn 0.9239 0.0000 0.3827
vn 1.0000 0.0000 0.0000
vn 0.9239 0.0000 -0.3827
vn 0.7071 0.0000 -0.7071
vn 0.3827 0.0000 -0.9239
vn -0.0000 0.0000 -1.0000
vn -0.3827 0.0000 -0.9239
# 37 vertex normals

vt 0.7175 0.3529 0.0000
vt 0.8604 0.2995 0.0000
vt 0.8700 0.3476 0.0000
vt 0.8604 0.3957 0.0000
vt 0.5807 0.5089 -0.0826
vt 0.6553 0.5587 -0.0826
vt 0.6472 0.5781 -0.0826
vt 0.5658 0.5238 -0.0826
vt 0.5309 0.4343 -0.0826
vt 0.5115 0.4424 -0.0826
vt 0.5134 0.3464 -0.0826
vt 0.4924 0.3464 -0.0826
vt 0.5309 0.2585 -0.0826
vt 0.5115 0.2504 -0.0826
vt 0.5807 0.1840 -0.0826
vt 0.5658 0.1691 -0.0826
vt 0.6553 0.1342 -0.0826
vt 0.6472 0.1147 -0.0826
vt 0.7432 0.1167 -0.0826
vt 0.7432 0.0956 0.0826
vt 0.8311 0.1342 -0.0826
vt 0.8392 0.1147 -0.0826
vt 0.9057 0.1840 -0.0826
vt 0.9206 0.1691 -0.0826
vt 0.9555 0.2585 -0.0826
vt 0.9749 0.2504 -0.0826
vt 0.9730 0.3464 -0.0826
vt 0.9940 0.3464 -0.0826
vt 0.9555 0.4344 -0.0826
vt 0.9749 0.4424 -0.0826
vt 0.9057 0.5089 -0.0826
vt 0.9206 0.5238 -0.0826
vt 0.8392 0.5782 -0.0826
vt 0.8311 0.5587 -0.0826
vt 0.3229 0.7077 0.2500
vt 0.1584 0.7006 0.2500
vt 0.1701 0.6417 0.2500
vt 0.2035 0.5918 0.2500
vt 0.1220 0.3505 -0.0526
vt 0.0001 0.3505 -0.0526
vt 0.0001 0.2406 -0.0526
vt 0.1220 0.2406 0.0526
vt 0.2431 0.3505 -0.0526
vt 0.2431 0.2406 -0.0526
vt 0.3634 0.3505 -0.0526
vt 0.3634 0.2406 -0.0526
vt 0.4844 0.3505 -0.0526
vt 0.4844 0.2406 0.0526
vt 0.1212 0.3505 -0.0526
vt 0.0001 0.2406 0.0526
vt 0.1212 0.2406 -0.0526
vt 0.2423 0.3505 -0.0526
vt 0.2423 0.2406 -0.0526
vt 0.3634 0.2406 0.0526
vt 0.4844 0.2406 -0.0526
vt 0.1212 0.2406 0.0526
vt 0.4877 0.0554 -0.0413
vt 0.4877 0.1941 0.0413
vt 0.3667 0.1941 -0.0413
vt 0.3667 0.0554 -0.0413
vt 0.4877 0.1941 -0.0413
vt 0.3667 0.0554 0.0413
vt 0.2456 0.1941 -0.0413
vt 0.2456 0.0554 -0.0413
vt 0.1245 0.1941 -0.0413
vt 0.1245 0.0554 -0.0413
vt 0.0034 0.1941 -0.0413
vt 0.0034 0.0554 0.0413
vt 0.3665 0.1940 -0.0413
vt 0.3665 0.0554 0.0413
vt 0.4875 0.0554 -0.0413
vt 0.4875 0.1940 -0.0413
vt 0.2455 0.1941 -0.0413
vt 0.2455 0.0554 -0.0413
vt 0.1245 0.0555 -0.0413
vt 0.0035 0.1941 0.0413
vt 0.0035 0.0555 -0.0413
vt 0.0034 0.0554 -0.0413
vt 0.1245 0.1941 0.0413
vt 0.6185 0.3476 0.0000
vt 0.5205 0.3476 0.0000
vt 0.5376 0.2620 0.0000
vt 0.6281 0.2995 0.0000
vt 0.6553 0.2587 0.0000
vt 0.5861 0.1894 0.0000
vt 0.6961 0.2314 0.0000
vt 0.6586 0.1409 0.0000
vt 0.7442 0.1239 0.0000
vt 0.7442 0.2219 0.0000
vt 0.8298 0.1409 0.0000
vt 0.7923 0.2314 0.0000
vt 0.8331 0.2587 0.0000
vt 0.9024 0.1894 0.0000
vt 0.9509 0.2620 0.0000
vt 0.9679 0.3476 0.0000
vt 0.9509 0.4332 0.0000
vt 0.9024 0.5058 0.0000
vt 0.8331 0.4365 0.0000
vt 0.7923 0.4638 0.0000
vt 0.8298 0.5543 0.0000
vt 0.7442 0.4733 0.0000
vt 0.7442 0.5713 0.0000
vt 0.6586 0.5543 0.0000
vt 0.6961 0.4638 0.0000
vt 0.6553 0.4365 0.0000
vt 0.5861 0.5058 0.0000
vt 0.5376 0.4332 0.0000
vt 0.6281 0.3957 0.0000
vt 0.7432 0.5762 -0.0826
vt 0.7432 0.5972 0.0826
vt 0.3713 0.8429 0.2500
vt 0.4213 0.8095 0.2500
vt 0.5210 0.9092 0.2500
vt 0.4253 0.9732 0.2500
vt 0.3124 0.9956 0.2500
vt 0.3124 0.8546 0.2500
vt 0.2535 0.8429 0.2500
vt 0.1995 0.9732 0.2500
vt 0.2035 0.8095 0.2500
vt 0.1038 0.9092 0.2500
vt 0.0398 0.8135 0.2500
vt 0.1701 0.7595 0.2500
vt 0.0174 0.7006 0.2500
vt 0.0398 0.5877 0.2500
vt 0.1038 0.4920 0.2500
vt 0.1995 0.4281 0.2500
vt 0.2535 0.5584 0.2500
vt 0.3124 0.5467 0.2500
vt 0.3124 0.4056 0.2500
vt 0.3713 0.5584 0.2500
vt 0.4253 0.4281 0.2500
vt 0.4213 0.5918 0.2500
vt 0.5210 0.4920 0.2500
vt 0.5849 0.5877 0.2500
vt 0.4546 0.6417 0.2500
vt 0.6074 0.7006 0.2500
vt 0.4664 0.7006 0.2500
vt 0.4546 0.7595 0.2500
vt 0.5849 0.8135 0.2500
# 139 texture coords

g face
s 1
f 1/1/1 2/2/1 3/3/1 4/4/1 
f 5/5/2 6/6/3 7/7/3 8/8/2 
f 9/9/2 5/5/2 8/8/2 10/10/2 
f 11/11/2 9/9/2 10/10/2 12/12/2 
f 13/13/2 11/11/2 12/12/2 14/14/2 
f 15/15/4 13/13/2 14/14/2 16/16/4 
f 17/17/4 15/15/4 16/16/4 18/18/4 
f 19/19/4 17/17/4 18/18/4 20/20/4 
f 21/21/4 19/19/4 20/20/4 22/22/4 
f 23/23/4 21/21/4 22/22/4 24/24/4 
f 25/25/5 23/23/4 24/24/4 26/26/5 
f 27/27/5 25/25/5 26/26/5 28/28/5 
f 29/29/5 27/27/5 28/28/5 30/30/5 
f 31/31/3 29/29/5 30/30/5 32/32/3 
f 32/32/3 33/33/3 34/34/3 31/31/3 
f 35/35/5 36/36/5 37/37/5 38/38/5 
s off
f 39/39/6 40/40/6 41/41/6 6/42/6 
f 42/43/7 39/39/7 6/42/7 5/44/7 
f 43/45/8 42/43/8 5/44/8 9/46/8 
f 44/47/9 43/45/9 9/46/9 11/48/9 
f 45/49/10 44/40/10 11/50/10 13/51/10 
f 46/52/11 45/49/11 13/51/11 15/53/11 
f 47/45/12 46/52/12 15/53/12 17/54/12 
f 47/45/13 17/54/13 19/55/13 48/47/13 
f 49/49/14 48/40/14 19/50/14 21/51/14 
f 50/52/15 49/49/15 21/51/15 23/53/15 
f 51/45/16 50/52/16 23/53/16 25/54/16 
f 52/47/17 51/45/17 25/54/17 27/55/17 
f 53/45/18 52/47/18 27/48/18 29/46/18 
f 54/52/19 53/45/19 29/46/19 31/53/19 
f 55/49/20 54/52/20 31/53/20 34/56/20 
f 55/49/21 34/56/21 41/41/21 40/40/21 
s 8
f 56/57/22 7/58/22 57/59/23 58/60/23 
f 56/61/22 59/59/24 8/62/24 7/57/22 
f 59/59/24 60/63/25 10/64/25 8/62/24 
f 60/63/25 61/65/26 12/66/26 10/64/25 
f 61/65/26 62/67/27 14/68/27 12/66/26 
f 63/69/28 16/70/28 14/71/27 62/72/27 
f 63/69/28 64/73/29 18/74/29 16/70/28 
f 65/65/30 20/75/30 18/74/29 64/73/29 
f 65/65/30 66/76/31 22/77/31 20/75/30 
f 66/78/31 67/66/32 24/79/32 22/67/31 
f 67/66/32 68/64/33 26/63/33 24/79/32 
f 68/64/33 69/60/34 28/59/34 26/63/33 
f 69/60/34 70/57/35 30/58/35 28/59/34 
f 70/78/35 71/66/36 32/79/36 30/67/35 
f 71/66/36 72/64/37 33/63/37 32/79/36 
f 72/64/37 58/60/23 57/59/23 33/63/37 
s 1
f 73/80/1 58/81/1 72/82/1 74/83/1 
f 75/84/1 74/83/1 72/82/1 71/85/1 
f 76/86/1 75/84/1 71/85/1 70/87/1 
f 76/86/1 70/87/1 69/88/1 77/89/1 
f 77/89/1 69/88/1 68/90/1 78/91/1 
f 79/92/1 78/91/1 68/90/1 67/93/1 
f 79/92/1 67/93/1 66/94/1 2/2/1 
f 3/3/1 2/2/1 66/94/1 65/95/1 
f 3/3/1 65/95/1 64/96/1 4/4/1 
f 4/4/1 64/96/1 63/97/1 80/98/1 
f 81/99/1 80/98/1 63/97/1 62/100/1 
f 82/101/1 81/99/1 62/100/1 61/102/1 
f 82/101/1 61/102/1 60/103/1 83/104/1 
f 84/105/1 83/104/1 60/103/1 59/106/1 
f 84/105/1 59/106/1 56/107/1 85/108/1 
f 73/80/1 85/108/1 56/107/1 58/81/1 
f 1/1/1 85/108/1 73/80/1 74/83/1 
f 1/1/1 83/104/1 84/105/1 85/108/1 
f 1/1/1 74/83/1 75/84/1 76/86/1 
f 1/1/1 81/99/1 82/101/1 83/104/1 
f 1/1/1 76/86/1 77/89/1 78/91/1 
f 1/1/1 4/4/1 80/98/1 81/99/1 
f 1/1/1 78/91/1 79/92/1 2/2/1 
f 6/6/3 41/109/3 57/110/3 7/7/3 
f 34/34/3 33/33/3 57/110/3 41/109/3 
f 86/111/5 87/112/5 54/113/5 55/114/5 
f 86/111/5 55/114/5 40/115/5 88/116/5 
f 89/117/5 88/116/5 40/115/5 39/118/5 
f 90/119/5 89/117/5 39/118/5 42/120/5 
f 90/119/5 42/120/5 43/121/5 91/122/5 
f 36/36/5 91/122/5 43/121/5 44/123/5 
f 36/36/5 44/123/5 45/124/5 37/37/5 
f 38/38/5 37/37/5 45/124/5 46/125/5 
f 38/38/5 46/125/5 47/126/5 92/127/5 
f 93/128/5 92/127/5 47/126/5 48/129/5 
f 94/130/5 93/128/5 48/129/5 49/131/5 
f 95/132/5 94/130/5 49/131/5 50/133/5 
f 95/132/5 50/133/5 51/134/5 96/135/5 
f 96/135/5 51/134/5 52/136/5 97/137/5 
f 98/138/5 97/137/5 52/136/5 53/139/5 
f 98/138/5 53/139/5 54/113/5 87/112/5 
f 35/35/5 97/137/5 98/138/5 87/112/5 
f 35/35/5 87/112/5 86/111/5 88/116/5 
f 35/35/5 95/132/5 96/135/5 97/137/5 
f 35/35/5 88/116/5 89/117/5 90/119/5 
f 35/35/5 93/128/5 94/130/5 95/132/5 
f 35/35/5 90/119/5 91/122/5 36/36/5 
f 35/35/5 38/38/5 92/127/5 93/128/5 
# 96 polygons

#
# object pointer
#

v  0.0807 0.1388 -0.0000
v  0.0100 0.1388 -0.0707
v  -0.0607 0.1388 -0.0000
v  0.0100 0.1388 0.0707
v  0.0452 0.1153 -0.0000
v  0.0100 0.1153 -0.0352
v  0.0100 0.1188 -0.0707
v  0.0807 0.1188 -0.0000
v  -0.0252 0.1153 0.0000
v  -0.0607 0.1188 -0.0000
v  0.0100 0.1153 0.0352
v  0.0100 0.1188 0.0707
v  -0.1984 0.1278 -0.2158
v  -0.2058 0.1278 -0.2084
v  -0.2058 0.1299 -0.2084
v  -0.1984 0.1299 -0.2158
v  0.1511 0.1267 0.1559
v  0.1659 0.1267 0.1411
v  0.1659 0.1309 0.1411
v  0.1511 0.1309 0.1559
v  0.0100 0.0436 0.0352
v  0.0452 0.0436 -0.0000
v  -0.0252 0.0436 -0.0000
v  0.0100 0.0436 -0.0352
# 24 vertices

vn 0.0000 1.0000 -0.0000
vn 0.0972 -0.9905 -0.0972
vn -0.0972 -0.9905 -0.0972
vn -0.0972 -0.9905 0.0972
vn 0.0972 -0.9905 0.0972
vn 0.7071 0.0000 -0.7071
vn -0.7071 0.0000 -0.7071
vn -0.7071 0.0000 0.7071
vn 0.7071 0.0000 0.7071
vn -0.0253 -0.9994 -0.0253
vn -0.8206 0.0000 0.5715
vn -0.0253 0.9994 -0.0253
vn 0.5715 0.0000 -0.8206
vn 0.0349 -0.9988 0.0349
vn 0.8562 0.0000 -0.5167
vn 0.0349 0.9988 0.0349
vn -0.5167 0.0000 0.8562
vn -0.7071 -0.0000 0.7071
# 18 vertex normals

vt 0.9583 0.6899 -0.0453
vt 0.9581 0.7774 -0.0453
vt 0.8706 0.7772 -0.0453
vt 0.8708 0.6897 -0.0453
vt 0.8928 0.7118 -0.0389
vt 0.8927 0.7551 -0.0389
vt 0.8706 0.7772 -0.0389
vt 0.8708 0.6897 -0.0389
vt 0.9361 0.7552 -0.0389
vt 0.9581 0.7773 -0.0389
vt 0.9362 0.7119 -0.0389
vt 0.9583 0.6898 -0.0389
vt 0.9840 0.6933 -0.0425
vt 0.9841 0.7794 -0.0425
vt 0.9669 0.7794 -0.0425
vt 0.9667 0.6933 -0.0425
vt 0.9788 0.8274 0.0425
vt 0.9788 0.8519 0.0425
vt 0.9739 0.8519 -0.0425
vt 0.9739 0.8274 -0.0425
vt 0.9839 0.6933 -0.0425
vt 0.9745 0.6397 0.0425
vt 0.9745 0.6250 0.0425
vt 0.9774 0.6250 -0.0425
vt 0.9774 0.6397 -0.0425
vt 0.9185 0.9961 -0.0389
vt 0.9093 0.9961 0.0389
vt 0.9769 0.9980 -0.0425
vt 0.9769 0.9980 0.0425
vt 0.9185 0.9961 0.0453
vt 0.9093 0.9961 -0.0453
vt 0.9056 0.5496 0.0389
vt 0.9239 0.5496 -0.0389
vt 0.9733 0.5514 -0.0425
vt 0.9769 0.5514 0.0425
vt 0.9057 0.5496 -0.0453
vt 0.9240 0.5496 0.0453
vt 0.9732 0.5514 0.0425
vt 0.9768 0.5514 -0.0425
vt 0.8258 0.7618 -0.0178
vt 0.8258 0.7217 0.0178
vt 0.7679 0.7217 -0.0178
vt 0.7679 0.7618 0.0178
vt 0.7686 0.7629 0.0178
vt 0.7686 0.7228 0.0178
vt 0.8264 0.7228 -0.0178
vt 0.8264 0.7629 -0.0178
vt 0.7685 0.7629 0.0178
vt 0.7685 0.7228 -0.0178
vt 0.8264 0.7228 0.0178
vt 0.8264 0.7629 0.0178
vt 0.7686 0.7629 -0.0178
vt 0.7686 0.7228 -0.0178
# 53 texture coords

g pointer
s 4
f 99/140/38 100/141/38 101/142/38 102/143/38 
s 8
f 103/144/39 104/145/39 105/146/39 106/147/39 
s 16
f 104/145/40 107/148/40 108/149/40 105/146/40 
s 32
f 107/148/41 109/150/41 110/151/41 108/149/41 
s 64
f 109/150/42 103/144/42 106/147/42 110/151/42 
s off
f 106/152/43 105/153/43 100/154/43 99/155/43 
f 111/156/44 112/157/44 113/158/44 114/159/44 
f 108/154/45 110/155/45 102/160/45 101/153/45 
f 115/161/46 116/162/46 117/163/46 118/164/46 
f 105/146/47 108/149/47 112/165/47 111/166/47 
f 108/154/48 101/153/48 113/167/48 112/168/48 
f 101/142/49 100/141/49 114/169/49 113/170/49 
f 100/154/50 105/153/50 111/168/50 114/167/50 
f 110/151/51 106/147/51 116/171/51 115/172/51 
f 106/152/52 99/155/52 117/173/52 116/174/52 
f 99/140/53 102/143/53 118/175/53 117/176/53 
f 102/160/54 110/155/54 115/177/54 118/178/54 
f 103/179/46 109/180/46 119/181/46 120/182/46 
f 109/183/55 107/184/55 121/185/55 119/186/55 
f 107/187/44 104/188/44 122/189/44 121/186/44 
f 104/189/43 103/190/43 120/191/43 122/192/43 
# 21 polygons

