# 3ds Max Wavefront OBJ Exporter v0.97b - (c)2007 guruware
# File Created: 26.09.2013 22:01:33

#
# object discRack
#

v  0.9600 0.3500 0.6500
v  0.9800 0.3500 0.6500
v  0.9800 0.3500 0.3500
v  0.9600 0.3500 0.3500
v  0.9600 0.1000 0.6500
v  0.9800 0.1000 0.6500
v  0.9800 0.1000 0.3500
v  0.9600 0.1000 0.3500
v  0.8552 0.3500 0.6500
v  0.8752 0.3500 0.6500
v  0.8752 0.3500 0.3500
v  0.8552 0.3500 0.3500
v  0.8552 0.1000 0.6500
v  0.8752 0.1000 0.6500
v  0.8752 0.1000 0.3500
v  0.8552 0.1000 0.3500
v  0.7508 0.3500 0.6500
v  0.7708 0.3500 0.6500
v  0.7708 0.3500 0.3500
v  0.7508 0.3500 0.3500
v  0.7508 0.1000 0.6500
v  0.7708 0.1000 0.6500
v  0.7708 0.1000 0.3500
v  0.7508 0.1000 0.3500
v  0.6464 0.3500 0.6500
v  0.6664 0.3500 0.6500
v  0.6664 0.3500 0.3500
v  0.6464 0.3500 0.3500
v  0.6464 0.1000 0.6500
v  0.6664 0.1000 0.6500
v  0.6664 0.1000 0.3500
v  0.6464 0.1000 0.3500
v  0.5420 0.3500 0.6500
v  0.5620 0.3500 0.6500
v  0.5620 0.3500 0.3500
v  0.5420 0.3500 0.3500
v  0.5420 0.1000 0.6500
v  0.5620 0.1000 0.6500
v  0.5620 0.1000 0.3500
v  0.5420 0.1000 0.3500
v  0.4376 0.3500 0.6500
v  0.4576 0.3500 0.6500
v  0.4576 0.3500 0.3500
v  0.4376 0.3500 0.3500
v  0.4376 0.1000 0.6500
v  0.4576 0.1000 0.6500
v  0.4576 0.1000 0.3500
v  0.4376 0.1000 0.3500
v  0.3332 0.3500 0.6500
v  0.3532 0.3500 0.6500
v  0.3532 0.3500 0.3500
v  0.3332 0.3500 0.3500
v  0.3332 0.1000 0.6500
v  0.3532 0.1000 0.6500
v  0.3532 0.1000 0.3500
v  0.3332 0.1000 0.3500
v  0.2281 0.3500 0.6500
v  0.2481 0.3500 0.6500
v  0.2481 0.3500 0.3500
v  0.2281 0.3500 0.3500
v  0.2281 0.1000 0.6500
v  0.2481 0.1000 0.6500
v  0.2481 0.1000 0.3500
v  0.2281 0.1000 0.3500
v  0.1240 0.3500 0.6500
v  0.1440 0.3500 0.6500
v  0.1440 0.3500 0.3500
v  0.1240 0.3500 0.3500
v  0.1240 0.1000 0.6500
v  0.1440 0.1000 0.6500
v  0.1440 0.1000 0.3500
v  0.1240 0.1000 0.3500
v  0.0200 0.3500 0.6500
v  0.0400 0.3500 0.6500
v  0.0400 0.3500 0.3500
v  0.0200 0.3500 0.3500
v  0.0200 0.1000 0.6500
v  0.0400 0.1000 0.6500
v  0.0400 0.1000 0.3500
v  0.0200 0.1000 0.3500
v  0.0000 0.0000 0.5000
v  1.0000 0.0000 0.5000
v  1.0000 0.0000 0.7500
v  0.0000 0.0000 0.7500
v  1.0000 0.1000 0.7500
v  1.0000 0.1000 0.5000
v  0.0000 0.1000 0.5000
v  0.0000 0.1000 0.7500
v  1.0000 0.0000 0.2500
v  1.0000 0.1000 0.2500
v  0.0000 0.0000 0.2500
v  0.0000 0.1000 0.2500
# 92 vertices

vn 0.0000 1.0000 -0.0000
vn 0.0000 0.0000 1.0000
vn 1.0000 0.0000 -0.0000
vn 0.0000 0.0000 -1.0000
vn -1.0000 0.0000 -0.0000
vn 0.0000 -1.0000 -0.0000
# 6 vertex normals

vt 0.0015 0.9992 0.1250
vt 0.0015 0.9378 -0.1250
vt 0.9230 0.9378 -0.1250
vt 0.9230 0.9992 0.1250
vt 0.7511 0.9385 0.0625
vt 0.7511 0.9984 0.0625
vt 0.0019 0.9984 -0.0625
vt 0.0019 0.9385 -0.0625
vt 0.3735 0.3949 0.0625
vt 0.3735 0.6874 0.0625
vt 0.1297 0.6874 -0.0625
vt 0.1297 0.3949 -0.0625
vt 0.0019 0.9984 0.0625
vt 0.0019 0.9385 0.0625
vt 0.7511 0.9385 -0.0625
vt 0.7511 0.9984 -0.0625
vt 0.1297 0.6874 0.0625
vt 0.1297 0.3948 0.0625
vt 0.3735 0.3948 -0.0625
vt 0.3735 0.6874 -0.0625
vt 0.3735 0.3948 0.0625
vt 0.1297 0.3948 -0.0625
vt 0.1297 0.3949 0.0625
vt 0.3735 0.3949 -0.0625
vt 0.3733 0.3944 0.0625
vt 0.3733 0.6869 0.0625
vt 0.1296 0.6869 -0.0625
vt 0.1296 0.3944 -0.0625
vt 0.1299 0.6872 0.0625
vt 0.1299 0.3947 0.0625
vt 0.3737 0.3947 -0.0625
vt 0.3737 0.6872 -0.0625
vt 0.3732 0.3946 0.0625
vt 0.3732 0.6871 0.0625
vt 0.1294 0.6871 -0.0625
vt 0.1294 0.3946 -0.0625
vt 0.1294 0.6871 0.0625
vt 0.1294 0.3946 0.0625
vt 0.3732 0.3946 -0.0625
vt 0.3732 0.6871 -0.0625
vt 0.3737 0.3947 0.0625
vt 0.3737 0.6872 0.0625
vt 0.1299 0.6872 -0.0625
vt 0.1299 0.3947 -0.0625
vt 0.1296 0.6869 0.0625
vt 0.1296 0.3944 0.0625
vt 0.3733 0.3944 -0.0625
vt 0.3733 0.6869 -0.0625
vt 0.3734 0.3943 0.0625
vt 0.3734 0.6868 0.0625
vt 0.1296 0.6868 -0.0625
vt 0.1296 0.3943 -0.0625
vt 0.1299 0.6871 0.0625
vt 0.1299 0.3946 0.0625
vt 0.3737 0.3946 -0.0625
vt 0.3737 0.6871 -0.0625
vt 0.3732 0.3945 0.0625
vt 0.1294 0.3945 -0.0625
vt 0.1297 0.6866 0.0625
vt 0.1297 0.3941 0.0625
vt 0.3735 0.3941 -0.0625
vt 0.3735 0.6866 -0.0625
vt 0.3735 0.3941 0.0625
vt 0.3735 0.6866 0.0625
vt 0.1297 0.6866 -0.0625
vt 0.1297 0.3941 -0.0625
vt 0.1294 0.3945 0.0625
vt 0.3732 0.3945 -0.0625
vt 0.3737 0.3946 0.0625
vt 0.3737 0.6871 0.0625
vt 0.1299 0.6871 -0.0625
vt 0.1299 0.3946 -0.0625
vt 0.1296 0.6868 0.0625
vt 0.1296 0.3943 0.0625
vt 0.3734 0.3943 -0.0625
vt 0.3734 0.6868 -0.0625
vt 0.3738 0.3944 0.0625
vt 0.3738 0.6869 0.0625
vt 0.1300 0.6869 -0.0625
vt 0.1300 0.3944 -0.0625
vt 0.1300 0.6869 0.0625
vt 0.1300 0.3944 0.0625
vt 0.3738 0.3944 -0.0625
vt 0.3738 0.6869 -0.0625
vt 1.0000 0.7498 0.0500
vt -0.0000 0.7498 0.0500
vt -0.0000 0.9998 -0.0500
vt 1.0000 0.9998 -0.0500
vt -0.0000 0.9998 0.0000
vt -0.0000 0.7498 -0.0000
vt 1.0000 0.7498 -0.0000
vt 1.0000 0.9998 0.0000
vt -0.0000 0.8931 -0.0250
vt 1.0000 0.8931 -0.0250
vt 1.0000 0.9931 0.0250
vt -0.0000 0.9931 0.0250
vt 0.6875 0.6738 -0.0250
vt 0.9363 0.6738 -0.0250
vt 0.9363 0.5743 0.0250
vt 0.4386 0.6738 -0.0250
vt 0.6875 0.5743 0.0250
vt 0.4386 0.5743 0.0250
vt 1.0000 0.9998 0.0500
vt -0.0000 0.9998 0.0500
vt -0.0000 0.7498 -0.0500
vt 1.0000 0.7498 -0.0500
vt -0.0000 0.9998 -0.0000
vt 1.0000 0.9998 -0.0000
vt 1.0000 0.7498 0.0000
vt -0.0000 0.7498 0.0000
# 110 texture coords

g discRack
s 4
f 1/1/1 2/2/1 3/3/1 4/4/1 
s 8
f 5/5/2 6/6/2 2/7/2 1/8/2 
s 16
f 6/9/3 7/10/3 3/11/3 2/12/3 
s 32
f 7/13/4 8/14/4 4/15/4 3/16/4 
s 64
f 8/17/5 5/18/5 1/19/5 4/20/5 
s 4
f 9/1/1 10/2/1 11/3/1 12/4/1 
s 8
f 13/5/2 14/6/2 10/7/2 9/8/2 
s 16
f 14/21/3 15/10/3 11/11/3 10/22/3 
s 32
f 15/13/4 16/14/4 12/15/4 11/16/4 
s 64
f 16/17/5 13/23/5 9/24/5 12/20/5 
s 4
f 17/1/1 18/2/1 19/3/1 20/4/1 
s 8
f 21/5/2 22/6/2 18/7/2 17/8/2 
s 16
f 22/25/3 23/26/3 19/27/3 18/28/3 
s 32
f 23/13/4 24/14/4 20/15/4 19/16/4 
s 64
f 24/29/5 21/30/5 17/31/5 20/32/5 
s 4
f 25/1/1 26/2/1 27/3/1 28/4/1 
s 8
f 29/5/2 30/6/2 26/7/2 25/8/2 
s 16
f 30/33/3 31/34/3 27/35/3 26/36/3 
s 32
f 31/13/4 32/14/4 28/15/4 27/16/4 
s 64
f 32/37/5 29/38/5 25/39/5 28/40/5 
s 4
f 33/1/1 34/2/1 35/3/1 36/4/1 
s 8
f 37/5/2 38/6/2 34/7/2 33/8/2 
s 16
f 38/41/3 39/42/3 35/43/3 34/44/3 
s 32
f 39/13/4 40/14/4 36/15/4 35/16/4 
s 64
f 40/45/5 37/46/5 33/47/5 36/48/5 
s 4
f 41/1/1 42/2/1 43/3/1 44/4/1 
s 8
f 45/5/2 46/6/2 42/7/2 41/8/2 
s 16
f 46/49/3 47/50/3 43/51/3 42/52/3 
s 32
f 47/13/4 48/14/4 44/15/4 43/16/4 
s 64
f 48/53/5 45/54/5 41/55/5 44/56/5 
s 4
f 49/1/1 50/2/1 51/3/1 52/4/1 
s 8
f 53/5/2 54/6/2 50/7/2 49/8/2 
s 16
f 54/57/3 55/34/3 51/35/3 50/58/3 
s 32
f 55/13/4 56/14/4 52/15/4 51/16/4 
s 64
f 56/59/5 53/60/5 49/61/5 52/62/5 
s 4
f 57/1/1 58/2/1 59/3/1 60/4/1 
s 8
f 61/5/2 62/6/2 58/7/2 57/8/2 
s 16
f 62/63/3 63/64/3 59/65/3 58/66/3 
s 32
f 63/13/4 64/14/4 60/15/4 59/16/4 
s 64
f 64/37/5 61/67/5 57/68/5 60/40/5 
s 4
f 65/1/1 66/2/1 67/3/1 68/4/1 
s 8
f 69/5/2 70/6/2 66/7/2 65/8/2 
s 16
f 70/69/3 71/70/3 67/71/3 66/72/3 
s 32
f 71/13/4 72/14/4 68/15/4 67/16/4 
s 64
f 72/73/5 69/74/5 65/75/5 68/76/5 
s 4
f 73/1/1 74/2/1 75/3/1 76/4/1 
s 8
f 77/5/2 78/6/2 74/7/2 73/8/2 
s 16
f 78/77/3 79/78/3 75/79/3 74/80/3 
s 32
f 79/13/4 80/14/4 76/15/4 75/16/4 
s 64
f 80/81/5 77/82/5 73/83/5 76/84/5 
s 2
f 81/85/6 82/86/6 83/87/6 84/88/6 
s 4
f 85/89/1 86/90/1 87/91/1 88/92/1 
s 8
f 84/93/2 83/94/2 85/95/2 88/96/2 
s 16
f 82/97/3 89/98/3 90/99/3 83/100/3 
f 83/100/3 90/99/3 86/101/3 85/102/3 
s 32
f 89/94/4 91/93/4 92/96/4 90/95/4 
s 64
f 81/97/5 84/100/5 88/102/5 91/98/5 
f 91/98/5 88/102/5 87/101/5 92/99/5 
s 2
f 91/103/6 89/104/6 82/105/6 81/106/6 
s 4
f 90/107/1 92/108/1 87/109/1 86/110/1 
# 60 polygons

