# 3ds Max Wavefront OBJ Exporter v0.97b - (c)2007 guruware
# File Created: 31.03.2014 01:00:57

#
# object book8
#

v  0.4488 0.2494 -0.4703
v  0.4488 0.2494 -0.3453
v  0.0738 0.2494 -0.3453
v  0.0738 0.2494 -0.4703
v  0.4488 0.6557 -0.4703
v  0.0738 0.6557 -0.4703
v  0.0738 0.6557 -0.3453
v  0.4488 0.6557 -0.3453
# 8 vertices

vn 0.0000 -1.0000 -0.0000
vn 0.0000 1.0000 -0.0000
vn -0.0000 0.0000 -1.0000
vn -1.0000 0.0000 0.0000
vn 0.0000 0.0000 1.0000
vn 1.0000 0.0000 -0.0000
# 6 vertex normals

vt 0.1261 0.9838 0.0000
vt 0.1566 0.9838 0.0000
vt 0.1566 0.8923 0.0000
vt 0.1261 0.8923 0.0000
vt 0.1556 0.9822 6.5000
vt 0.1556 0.8945 6.5000
vt 0.1263 0.8945 -6.5000
vt 0.1263 0.9822 -6.5000
vt 0.1271 0.8891 3.2500
vt 0.2177 0.8891 3.2500
vt 0.2177 0.7910 -3.2500
vt 0.1271 0.7910 -3.2500
vt 0.1237 0.8834 3.2500
vt 0.0946 0.8834 3.2500
vt 0.0946 0.7889 -3.2500
vt 0.1237 0.7889 -3.2500
vt 0.0969 0.7900 3.2500
vt 0.0046 0.7900 3.2500
vt 0.0046 0.8900 -3.2500
vt 0.0969 0.8900 -3.2500
vt 0.2498 0.8904 3.2500
vt 0.2187 0.8904 3.2500
vt 0.2187 0.7894 -3.2500
vt 0.2498 0.7894 -3.2500
# 24 texture coords

g book8
s 2
f 1/1/1 2/2/1 3/3/1 4/4/1 
s 4
f 5/5/2 6/6/2 7/7/2 8/8/2 
s 8
f 1/9/3 4/10/3 6/11/3 5/12/3 
s 16
f 4/13/4 3/14/4 7/15/4 6/16/4 
s 32
f 3/17/5 2/18/5 8/19/5 7/20/5 
s 64
f 2/21/6 1/22/6 5/23/6 8/24/6 
# 6 polygons

#
# object book5
#

v  0.4550 0.2501 -0.0936
v  0.4550 0.2501 0.0314
v  0.0800 0.2501 0.0314
v  0.0800 0.2501 -0.0936
v  0.4550 0.6563 -0.0936
v  0.0800 0.6563 -0.0936
v  0.0800 0.6563 0.0314
v  0.4550 0.6563 0.0314
# 8 vertices

vn 0.0000 -1.0000 -0.0000
vn 0.0000 1.0000 -0.0000
vn -0.0000 0.0000 -1.0000
vn -1.0000 0.0000 0.0000
vn 0.0000 0.0000 1.0000
vn 1.0000 0.0000 -0.0000
# 6 vertex normals

vt 0.8589 0.9829 0.0000
vt 0.8913 0.9829 0.0000
vt 0.8913 0.8920 0.0000
vt 0.8589 0.8920 0.0000
vt 0.8917 0.9818 6.5000
vt 0.8917 0.8917 6.5000
vt 0.8597 0.8917 -6.5000
vt 0.8597 0.9818 -6.5000
vt 0.9510 0.7904 3.2500
vt 0.8593 0.7904 3.2500
vt 0.8593 0.8898 -3.2500
vt 0.9510 0.8898 -3.2500
vt 0.8593 0.8906 3.2500
vt 0.8282 0.8906 3.2500
vt 0.8282 0.7892 -3.2500
vt 0.8593 0.7892 -3.2500
vt 0.7365 0.8900 3.2500
vt 0.8282 0.8900 3.2500
vt 0.8282 0.7907 -3.2500
vt 0.7365 0.7907 -3.2500
vt 0.9529 0.8906 3.2500
vt 0.9840 0.8906 3.2500
vt 0.9840 0.7893 -3.2500
vt 0.9529 0.7893 -3.2500
# 24 texture coords

g book5
s 2
f 9/25/7 10/26/7 11/27/7 12/28/7 
s 4
f 13/29/8 14/30/8 15/31/8 16/32/8 
s 8
f 9/33/9 12/34/9 14/35/9 13/36/9 
s 16
f 12/37/10 11/38/10 15/39/10 14/40/10 
s 32
f 11/41/11 10/42/11 16/43/11 15/44/11 
s 64
f 10/45/12 9/46/12 13/47/12 16/48/12 
# 6 polygons

#
# object book2
#

v  0.4488 0.2504 0.2173
v  0.4488 0.2504 0.3423
v  0.0738 0.2504 0.3423
v  0.0738 0.2504 0.2173
v  0.4488 0.6254 0.2173
v  0.0738 0.6254 0.2173
v  0.0738 0.6254 0.3423
v  0.4488 0.6254 0.3423
# 8 vertices

vn 0.0000 -1.0000 -0.0000
vn 0.0000 1.0000 -0.0000
vn -0.0000 0.0000 -1.0000
vn -1.0000 0.0000 0.0000
vn 0.0000 0.0000 1.0000
vn 1.0000 0.0000 -0.0000
# 6 vertex normals

vt 0.3758 0.7634 0.0000
vt 0.4055 0.7634 0.0000
vt 0.4055 0.6743 0.0000
vt 0.3758 0.6743 0.0000
vt 0.4063 0.7638 6.0000
vt 0.4063 0.6747 6.0000
vt 0.3766 0.6747 -6.0000
vt 0.3766 0.7638 -6.0000
vt 0.4682 0.6707 3.0000
vt 0.3791 0.6707 3.0000
vt 0.3791 0.5816 -3.0000
vt 0.4682 0.5816 -3.0000
vt 0.3746 0.6698 3.0000
vt 0.3449 0.6698 3.0000
vt 0.3449 0.5807 -3.0000
vt 0.3746 0.5807 -3.0000
vt 0.3408 0.6704 3.0000
vt 0.2517 0.6704 3.0000
vt 0.2517 0.5813 -3.0000
vt 0.3408 0.5813 -3.0000
vt 0.4987 0.5816 3.0000
vt 0.4690 0.5816 3.0000
vt 0.4690 0.6707 -3.0000
vt 0.4987 0.6707 -3.0000
# 24 texture coords

g book2
s 2
f 17/49/13 18/50/13 19/51/13 20/52/13 
s 4
f 21/53/14 22/54/14 23/55/14 24/56/14 
s 8
f 17/57/15 20/58/15 22/59/15 21/60/15 
s 16
f 20/61/16 19/62/16 23/63/16 22/64/16 
s 32
f 19/65/17 18/66/17 24/67/17 23/68/17 
s 64
f 18/69/18 17/70/18 21/71/18 24/72/18 
# 6 polygons

#
# object book4
#

v  0.4793 0.2510 0.0310
v  0.4793 0.2510 0.1247
v  0.1043 0.2510 0.1247
v  0.1043 0.2510 0.0310
v  0.4793 0.6573 0.0310
v  0.1043 0.6573 0.0310
v  0.1043 0.6573 0.1247
v  0.4793 0.6573 0.1247
# 8 vertices

vn 0.0000 -1.0000 -0.0000
vn 0.0000 1.0000 -0.0000
vn -0.0000 0.0000 -1.0000
vn -1.0000 0.0000 0.0000
vn 0.0000 0.0000 1.0000
vn 1.0000 0.0000 -0.0000
# 6 vertex normals

vt 0.6396 0.7634 0.0000
vt 0.6172 0.7634 0.0000
vt 0.6172 0.6738 0.0000
vt 0.6396 0.6738 0.0000
vt 0.6182 0.7617 6.5000
vt 0.6182 0.6747 6.5000
vt 0.6399 0.6747 -6.5000
vt 0.6399 0.7617 -6.5000
vt 0.7109 0.6706 3.2500
vt 0.6204 0.6706 3.2500
vt 0.6204 0.5725 -3.2500
vt 0.7109 0.5725 -3.2500
vt 0.5944 0.5724 3.2500
vt 0.6170 0.5724 3.2500
vt 0.6170 0.6700 -3.2500
vt 0.5944 0.6700 -3.2500
vt 0.5026 0.5721 3.2500
vt 0.5937 0.5721 3.2500
vt 0.5937 0.6709 -3.2500
vt 0.5026 0.6709 -3.2500
vt 0.7342 0.6704 3.2500
vt 0.7117 0.6704 3.2500
vt 0.7117 0.5729 -3.2500
vt 0.7342 0.5729 -3.2500
# 24 texture coords

g book4
s 2
f 25/73/19 26/74/19 27/75/19 28/76/19 
s 4
f 29/77/20 30/78/20 31/79/20 32/80/20 
s 8
f 25/81/21 28/82/21 30/83/21 29/84/21 
s 16
f 28/85/22 27/86/22 31/87/22 30/88/22 
s 32
f 27/89/23 26/90/23 32/91/23 31/92/23 
s 64
f 26/93/24 25/94/24 29/95/24 32/96/24 
# 6 polygons

#
# object bench
#

v  -0.0000 0.2500 -0.5000
v  -0.0000 0.2500 -0.4687
v  -0.0000 0.7500 -0.4687
v  -0.0000 0.7500 -0.5000
v  0.5000 0.2500 -0.4687
v  0.5000 0.7500 -0.4687
v  0.5000 0.2500 0.4687
v  -0.0000 0.2500 0.4687
v  -0.0000 0.7500 0.4687
v  0.5000 0.7500 0.4687
v  -0.0000 0.2500 0.5000
v  -0.0000 0.7500 0.5000
v  -0.5000 0.7500 0.5000
v  -0.5000 0.7500 -0.5000
v  0.5000 0.7500 -0.5000
v  0.5000 0.7500 0.5000
v  0.5000 0.9000 0.5000
v  -0.5000 0.9000 0.5000
v  0.5000 0.9000 -0.5000
v  -0.5000 0.9000 -0.5000
v  -0.4527 0.9009 0.4527
v  0.4527 0.9009 0.4527
v  0.4527 0.9509 0.4527
v  -0.4527 0.9509 0.4527
v  0.4527 0.9009 -0.4527
v  0.4527 0.9509 -0.4527
v  -0.4527 0.9009 -0.4527
v  -0.4527 0.9509 -0.4527
v  -0.5000 -0.0000 0.5000
v  -0.5000 -0.0000 -0.5000
v  0.5000 -0.0000 -0.5000
v  0.5000 -0.0000 0.5000
v  -0.5000 0.2500 0.5000
v  0.5000 0.2500 0.5000
v  0.5000 0.2500 -0.5000
v  -0.5000 0.2500 -0.5000
# 36 vertices

vn -1.0000 -0.0000 -0.0008
vn -0.0000 0.0000 1.0000
vn -0.0000 -0.0000 -1.0000
vn -1.0000 -0.0000 0.0008
vn 1.0000 0.0000 -0.0000
vn 0.0000 -1.0000 -0.0000
vn 0.0000 0.0000 1.0000
vn 0.0000 0.0000 -1.0000
vn -1.0000 0.0000 -0.0000
vn 0.0000 1.0000 -0.0000
# 10 vertex normals

vt 0.0010 0.0005 0.0234
vt 0.0622 0.0005 0.0313
vt 0.0622 0.9995 0.0156
vt 0.0010 0.9995 0.0078
vt 0.0000 0.5000 8.0000
vt 0.0000 0.0000 8.0000
vt 1.0000 0.0000 -8.0000
vt 1.0000 0.5000 -8.0000
vt 1.0000 0.0000 8.0000
vt 1.0000 0.5000 8.0000
vt 0.0000 0.5000 -8.0000
vt 0.0000 0.0000 -8.0000
vt 0.9382 0.0005 0.1406
vt 0.9994 0.0005 0.1484
vt 0.9994 0.9995 0.1328
vt 0.9382 0.9995 0.1250
vt 0.0014 0.0010 4.0477
vt 0.9984 0.0006 -4.0477
vt 0.9986 0.4991 4.0477
vt 0.0016 0.4995 -4.0477
vt 0.9940 0.9933 8.0481
vt 0.0013 0.9933 -8.0481
vt 0.0013 0.0006 8.0481
vt 0.9940 0.0006 -8.0481
vt 0.0001 0.1500 9.2481
vt 1.0001 0.1500 9.2481
vt 1.0001 -0.0000 -9.2481
vt 0.0001 -0.0000 -9.2481
vt 1.0001 0.0000 -9.2481
vt 0.0001 0.0000 -9.2481
vt 1.0014 0.1502 9.2481
vt 0.0002 0.1502 9.2481
vt 0.0002 -0.0000 -9.2481
vt 1.0014 -0.0000 -9.2481
vt 1.0000 0.1500 9.2481
vt 0.0000 0.1500 9.2481
vt 0.0000 -0.0000 -9.2481
vt 1.0000 -0.0000 -9.2481
vt 0.0000 0.0000 10.8623
vt 1.0000 0.0000 10.8623
vt 1.0000 0.0552 -10.8623
vt 0.0000 0.0552 -10.8623
vt 1.0000 0.0552 10.8623
vt 0.0000 0.0552 10.8623
vt 0.0000 0.0000 -10.8623
vt 1.0000 0.0000 -10.8623
vt 1.0000 1.0000 0.0000
vt 0.0000 1.0000 0.0000
vt 0.0000 -0.0000 0.0000
vt 1.0000 0.0000 0.0000
vt 0.0013 0.9933 0.0475
vt 0.0013 0.0006 -0.0475
vt 0.9940 0.0006 0.0475
vt 0.9940 0.9933 -0.0475
vt 0.0000 -0.0000 -1.9525
vt 1.0000 -0.0000 -1.9525
vt 1.0000 0.2500 1.9525
vt 0.0000 0.2500 1.9525
vt 0.0001 -0.0000 -1.9525
vt 1.0001 -0.0000 -1.9525
vt 1.0001 0.2500 1.9525
vt 0.0001 0.2500 1.9525
vt 1.0012 -0.0000 -1.9525
vt 0.0000 0.2502 1.9525
vt 1.0012 0.2502 1.9525
vt 1.0001 0.0000 -1.9525
vt 0.0001 0.0000 -1.9525
# 67 texture coords

g bench
s off
f 33/97/25 34/98/25 35/99/25 36/100/25 
f 34/101/26 37/102/26 38/103/26 35/104/26 
f 39/105/27 40/106/27 41/107/27 42/108/27 
f 40/109/28 43/110/28 44/111/28 41/112/28 
f 43/113/29 33/114/29 36/115/29 44/116/29 
f 45/117/30 46/118/30 47/119/30 48/120/30 
f 45/121/31 48/122/31 49/123/31 50/124/31 
f 48/121/29 47/122/29 51/125/29 49/126/29 
f 47/127/32 46/128/32 52/129/32 51/130/32 
f 46/131/33 45/132/33 50/133/33 52/134/33 
f 53/135/26 54/136/26 55/137/26 56/138/26 
f 54/135/29 57/136/29 58/137/29 55/138/29 
f 57/139/32 59/140/32 60/141/32 58/142/32 
f 59/139/33 53/140/33 56/141/33 60/142/33 
f 61/143/30 62/144/30 63/145/30 64/146/30 
f 65/147/34 66/148/34 67/149/34 68/150/34 
f 61/151/31 64/152/31 66/153/31 65/154/31 
f 64/155/29 63/156/29 67/157/29 66/158/29 
f 63/159/32 62/151/32 68/160/32 67/161/32 
f 62/162/33 61/163/33 65/158/33 68/157/33 
# 20 polygons

#
# object book1
#

v  0.4481 0.2505 0.3420
v  0.4481 0.2505 0.4670
v  0.0731 0.2505 0.4670
v  0.0731 0.2505 0.3420
v  0.4481 0.6880 0.3420
v  0.0731 0.6880 0.3420
v  0.0731 0.6880 0.4670
v  0.4481 0.6880 0.4670
# 8 vertices

vn 0.0000 -1.0000 -0.0000
vn 0.0000 1.0000 -0.0000
vn -0.0000 0.0000 -1.0000
vn -1.0000 0.0000 0.0000
vn 0.0000 0.0000 1.0000
vn 1.0000 0.0000 -0.0000
# 6 vertex normals

vt 0.3753 0.5448 0.0000
vt 0.4058 0.5448 0.0000
vt 0.4058 0.4533 0.0000
vt 0.3753 0.4533 0.0000
vt 0.4058 0.5453 7.0000
vt 0.4058 0.4537 7.0000
vt 0.3753 0.4537 -7.0000
vt 0.3753 0.5453 -7.0000
vt 0.4687 0.4529 3.5000
vt 0.3754 0.4529 3.5000
vt 0.3754 0.3441 -3.5000
vt 0.4687 0.3441 -3.5000
vt 0.3751 0.4529 3.5000
vt 0.3440 0.4529 3.5000
vt 0.3440 0.3441 -3.5000
vt 0.3751 0.3441 -3.5000
vt 0.2506 0.4529 3.5000
vt 0.3439 0.4529 3.5000
vt 0.3439 0.3441 -3.5000
vt 0.2506 0.3441 -3.5000
vt 0.4687 0.3442 3.5000
vt 0.4998 0.3442 3.5000
vt 0.4998 0.4530 -3.5000
vt 0.4687 0.4530 -3.5000
# 24 texture coords

g book1
s 2
f 69/164/35 70/165/35 71/166/35 72/167/35 
s 4
f 73/168/36 74/169/36 75/170/36 76/171/36 
s 8
f 69/172/37 72/173/37 74/174/37 73/175/37 
s 16
f 72/176/38 71/177/38 75/178/38 74/179/38 
s 32
f 71/180/39 70/181/39 76/182/39 75/183/39 
s 64
f 70/184/40 69/185/40 73/186/40 76/187/40 
# 6 polygons

#
# object book3
#

v  0.4250 0.2507 0.1245
v  0.4250 0.2507 0.2183
v  0.0500 0.2507 0.2183
v  0.0500 0.2507 0.1245
v  0.4250 0.6257 0.1245
v  0.0500 0.6257 0.1245
v  0.0500 0.6257 0.2183
v  0.4250 0.6257 0.2183
# 8 vertices

vn 0.0000 -1.0000 -0.0000
vn 0.0000 1.0000 -0.0000
vn -0.0000 0.0000 -1.0000
vn -1.0000 0.0000 0.0000
vn 0.0000 0.0000 1.0000
vn 1.0000 0.0000 -0.0000
# 6 vertex normals

vt 0.6178 0.5447 0.0000
vt 0.6397 0.5447 0.0000
vt 0.6397 0.4570 0.0000
vt 0.6178 0.4570 0.0000
vt 0.6397 0.5449 6.0000
vt 0.6397 0.4572 6.0000
vt 0.6178 0.4572 -6.0000
vt 0.6178 0.5449 -6.0000
vt 0.6182 0.4449 3.0000
vt 0.7103 0.4449 3.0000
vt 0.7103 0.3528 -3.0000
vt 0.6182 0.3528 -3.0000
vt 0.6169 0.3549 3.0000
vt 0.5944 0.3549 3.0000
vt 0.5944 0.4451 -3.0000
vt 0.6169 0.4451 -3.0000
vt 0.5930 0.3535 3.0000
vt 0.5015 0.3535 3.0000
vt 0.5015 0.4450 -3.0000
vt 0.5930 0.4450 -3.0000
vt 0.7112 0.4450 3.0000
vt 0.7342 0.4450 3.0000
vt 0.7342 0.3529 -3.0000
vt 0.7112 0.3529 -3.0000
# 24 texture coords

g book3
s 2
f 77/188/41 78/189/41 79/190/41 80/191/41 
s 4
f 81/192/42 82/193/42 83/194/42 84/195/42 
s 8
f 77/196/43 80/197/43 82/198/43 81/199/43 
s 16
f 80/200/44 79/201/44 83/202/44 82/203/44 
s 32
f 79/204/45 78/205/45 84/206/45 83/207/45 
s 64
f 78/208/46 77/209/46 81/210/46 84/211/46 
# 6 polygons

#
# object book6
#

v  0.4402 0.2505 -0.2195
v  0.4402 0.2505 -0.0945
v  0.0652 0.2505 -0.0945
v  0.0652 0.2505 -0.2195
v  0.4402 0.6567 -0.2195
v  0.0652 0.6567 -0.2195
v  0.0652 0.6567 -0.0945
v  0.4402 0.6567 -0.0945
# 8 vertices

vn 0.0000 -1.0000 -0.0000
vn 0.0000 1.0000 -0.0000
vn -0.0000 0.0000 -1.0000
vn -1.0000 0.0000 0.0000
vn 0.0000 0.0000 1.0000
vn 1.0000 0.0000 -0.0000
# 6 vertex normals

vt 0.3763 0.3186 0.0000
vt 0.4052 0.3186 0.0000
vt 0.4052 0.2317 0.0000
vt 0.3763 0.2317 0.0000
vt 0.4052 0.3186 6.5000
vt 0.4052 0.2317 6.5000
vt 0.3763 0.2317 -6.5000
vt 0.3763 0.3186 -6.5000
vt 0.4682 0.2257 3.2500
vt 0.3758 0.2257 3.2500
vt 0.3758 0.1256 -3.2500
vt 0.4682 0.1256 -3.2500
vt 0.3746 0.2258 3.2500
vt 0.3438 0.2258 3.2500
vt 0.3438 0.1257 -3.2500
vt 0.3746 0.1257 -3.2500
vt 0.2508 0.2253 3.2500
vt 0.3432 0.2253 3.2500
vt 0.3432 0.1252 -3.2500
vt 0.2508 0.1252 -3.2500
vt 0.4689 0.1256 3.2500
vt 0.4997 0.1256 3.2500
vt 0.4997 0.2257 -3.2500
vt 0.4689 0.2257 -3.2500
# 24 texture coords

g book6
s 2
f 85/212/47 86/213/47 87/214/47 88/215/47 
s 4
f 89/216/48 90/217/48 91/218/48 92/219/48 
s 8
f 85/220/49 88/221/49 90/222/49 89/223/49 
s 16
f 88/224/50 87/225/50 91/226/50 90/227/50 
s 32
f 87/228/51 86/229/51 92/230/51 91/231/51 
s 64
f 86/232/52 85/233/52 89/234/52 92/235/52 
# 6 polygons

#
# object book7
#

v  0.4717 0.2505 -0.3444
v  0.4717 0.2505 -0.2194
v  0.0967 0.2505 -0.2194
v  0.0967 0.2505 -0.3444
v  0.4717 0.6255 -0.3444
v  0.0967 0.6255 -0.3444
v  0.0967 0.6255 -0.2194
v  0.4717 0.6255 -0.2194
# 8 vertices

vn 0.0000 -1.0000 -0.0000
vn 0.0000 1.0000 -0.0000
vn -0.0000 0.0000 -1.0000
vn -1.0000 0.0000 0.0000
vn 0.0000 0.0000 1.0000
vn 1.0000 0.0000 -0.0000
# 6 vertex normals

vt 0.6252 0.3187 0.0000
vt 0.6552 0.3187 0.0000
vt 0.6552 0.2286 0.0000
vt 0.6252 0.2286 0.0000
vt 0.6552 0.3187 6.0000
vt 0.6552 0.2286 6.0000
vt 0.6252 0.2286 -6.0000
vt 0.6252 0.3187 -6.0000
vt 0.7189 0.2262 3.0000
vt 0.6258 0.2262 3.0000
vt 0.6258 0.1331 -3.0000
vt 0.7189 0.1331 -3.0000
vt 0.5937 0.1332 3.0000
vt 0.6246 0.1332 3.0000
vt 0.6246 0.2259 -3.0000
vt 0.5937 0.2259 -3.0000
vt 0.5928 0.2254 3.0000
vt 0.5014 0.2254 3.0000
vt 0.5014 0.1341 -3.0000
vt 0.5928 0.1341 -3.0000
vt 0.7500 0.2259 3.0000
vt 0.7191 0.2259 3.0000
vt 0.7191 0.1332 -3.0000
vt 0.7500 0.1332 -3.0000
# 24 texture coords

g book7
s 2
f 93/236/53 94/237/53 95/238/53 96/239/53 
s 4
f 97/240/54 98/241/54 99/242/54 100/243/54 
s 8
f 93/244/55 96/245/55 98/246/55 97/247/55 
s 16
f 96/248/56 95/249/56 99/250/56 98/251/56 
s 32
f 95/252/57 94/253/57 100/254/57 99/255/57 
s 64
f 94/256/58 93/257/58 97/258/58 100/259/58 
# 6 polygons

#
# object top
#

v  -0.5000 1.0000 0.5000
v  0.5000 1.0000 0.5000
v  0.5000 1.0000 -0.5000
v  -0.5000 1.0000 -0.5000
v  -0.5000 0.9500 0.5000
v  0.5000 0.9500 0.5000
v  0.5000 0.9500 -0.5000
v  -0.5000 0.9500 -0.5000
v  -0.5000 0.9000 0.5000
v  0.5000 0.9000 0.5000
v  0.5000 0.9000 -0.5000
v  -0.5000 0.9000 -0.5000
# 12 vertices

vn 0.0000 1.0000 -0.0000
vn 0.0000 0.0000 1.0000
vn 1.0000 0.0000 -0.0000
vn 0.0000 0.0000 -1.0000
vn -1.0000 0.0000 -0.0000
vn 0.0000 -1.0000 -0.0000
# 6 vertex normals

vt 0.0000 1.0000 0.0000
vt -0.0000 0.0000 0.0000
vt 1.0000 -0.0000 0.0000
vt 1.0000 1.0000 0.0000
vt 0.0002 0.9498 11.6476
vt 1.0002 0.9498 11.6476
vt 1.0002 0.9998 -11.6476
vt 0.0002 0.9998 -11.6476
vt 0.0000 0.0000 11.6476
vt 1.0000 0.0000 11.6476
vt 1.0000 0.0500 -11.6476
vt 0.0000 0.0500 -11.6476
vt 1.0002 0.9998 11.6476
vt 0.0002 0.9998 11.6476
vt 0.0002 0.9498 -11.6476
vt 1.0002 0.9498 -11.6476
vt -0.0000 1.0000 0.0000
vt 0.0000 0.0000 0.0000
vt 1.0000 0.0000 0.0000
vt 0.0000 -0.0000 0.0000
# 20 texture coords

g top
s 4
f 101/260/59 102/261/59 103/262/59 104/263/59 
s 8
f 105/264/60 106/265/60 102/266/60 101/267/60 
s 16
f 106/268/61 107/269/61 103/270/61 102/271/61 
s 32
f 107/272/62 108/273/62 104/274/62 103/275/62 
s 64
f 108/272/63 105/273/63 101/274/63 104/275/63 
s 4
f 109/276/59 110/277/59 111/278/59 112/263/59 
s 2
f 105/263/64 108/276/64 107/279/64 106/278/64 
# 7 polygons

#
# object sides
#

v  0.5000 0.2500 -0.5000
v  -0.0000 0.2500 -0.5000
v  -0.0000 0.7500 -0.5000
v  0.5000 0.7500 -0.5000
v  -0.0000 0.2500 0.5000
v  0.5000 0.2500 0.5000
v  0.5000 0.7500 0.5000
v  -0.0000 0.7500 0.5000
v  -0.5000 0.2500 0.5000
v  -0.5000 0.7500 0.5000
v  -0.5000 0.2500 -0.5000
v  -0.5000 0.7500 -0.5000
v  0.5000 0.2500 -0.4687
v  0.5000 0.7500 -0.4687
v  0.5000 0.2500 0.4687
v  0.5000 0.7500 0.4687
# 16 vertices

vn 0.0000 -0.0000 -1.0000
vn 0.0000 0.0000 1.0000
vn -1.0000 0.0000 -0.0000
vn 1.0000 0.0000 0.0000
# 4 vertex normals

vt 0.0019 0.0007 -4.0478
vt 0.3441 0.0007 4.0478
vt 0.3441 0.3430 -4.0478
vt 0.0019 0.3430 4.0478
vt 0.3440 0.6551 0.0000
vt 0.0034 0.6552 4.0478
vt 0.0034 0.9958 0.0000
vt 0.3440 0.9958 4.0478
vt 0.6863 0.6536 4.0475
vt 0.3440 0.6536 4.0475
vt 0.3440 0.9958 -4.0475
vt 0.6863 0.9958 -4.0475
vt 0.3441 0.0007 -4.0477
vt 0.6863 0.0007 4.0477
vt 0.6863 0.3429 -4.0477
vt 0.3441 0.3429 4.0477
vt 0.6860 0.3469 4.0475
vt 0.0016 0.3469 4.0475
vt 0.0016 0.6501 -4.0475
vt 0.6860 0.6501 -4.0475
vt 0.0025 0.9972 8.0000
vt 0.0025 0.9760 8.0000
vt 0.6818 0.9760 -8.0000
vt 0.6818 0.9972 -8.0000
# 24 texture coords

g sides
s off
f 113/280/65 114/281/65 115/282/65 116/283/65 
f 117/284/66 118/285/66 119/286/66 120/287/66 
f 121/288/66 117/289/66 120/290/66 122/291/66 
f 114/292/65 123/293/65 124/294/65 115/295/65 
f 123/296/67 121/297/67 122/298/67 124/299/67 
f 125/300/68 113/301/68 116/302/68 126/303/68 
f 118/300/68 127/301/68 128/302/68 119/303/68 
# 7 polygons

