# 3ds Max Wavefront OBJ Exporter v0.97b - (c)2007 guruware
# File Created: 01.10.2013 15:56:59

#
# object main
#

v  -0.0000 0.0000 1.0000
v  -0.0000 0.0000 -0.0000
v  0.0300 0.0000 -0.0000
v  0.0300 0.0000 1.0000
v  -0.0000 1.0000 1.0000
v  0.0300 1.0000 1.0000
v  0.0300 1.0000 -0.0000
v  -0.0000 1.0000 -0.0000
# 8 vertices

vn 0.0000 -1.0000 -0.0000
vn 0.0000 1.0000 -0.0000
vn 0.0000 0.0000 1.0000
vn 1.0000 0.0000 -0.0000
vn 0.0000 0.0000 -1.0000
vn -1.0000 0.0000 -0.0000
# 6 vertex normals

vt 0.0000 0.0000 0.0000
vt 1.0000 0.0000 0.0000
vt 1.0000 0.0300 0.0000
vt 0.0000 0.0300 0.0000
vt 0.0000 0.0300 0.5000
vt 0.0000 0.0000 -0.5000
vt 1.0000 0.0000 -0.5000
vt 1.0000 0.0300 0.5000
vt 1.0000 0.0000 0.2500
vt 1.0000 0.0300 0.2500
vt 0.0000 0.0300 -0.2500
vt 0.0000 0.0000 -0.2500
vt 1.0000 1.0000 0.2500
vt 0.0000 1.0000 0.2500
vt 1.0000 0.0000 -0.2500
vt 0.0000 0.0300 0.2500
vt 0.0000 0.0000 0.2500
vt 1.0000 0.0300 -0.2500
vt 1.0000 1.0000 -0.2500
vt 0.0000 1.0000 -0.2500
# 20 texture coords

g main
s 2
f 1/1/1 2/2/1 3/3/1 4/4/1 
s 4
f 5/5/2 6/6/2 7/7/2 8/8/2 
s 8
f 1/9/3 4/10/3 6/11/3 5/12/3 
s 16
f 4/13/4 3/14/4 7/12/4 6/15/4 
s 32
f 3/16/5 2/17/5 8/15/5 7/18/5 
s 64
f 2/17/6 1/9/6 5/19/6 8/20/6 
# 6 polygons

#
# object cornerBR
#

v  0.0300 -0.0000 0.0000
v  0.0300 0.0200 -0.0000
v  0.0450 0.0200 -0.0000
v  0.0450 -0.0000 0.0000
v  0.0300 -0.0000 0.0200
v  0.0450 -0.0000 0.0200
v  0.0450 0.0200 0.0200
v  0.0300 0.0200 0.0200
# 8 vertices

vn 0.0000 -0.0000 -1.0000
vn 0.0000 0.0000 1.0000
vn 0.0000 -1.0000 0.0000
vn 1.0000 0.0000 -0.0000
vn 0.0000 1.0000 -0.0000
vn -1.0000 0.0000 -0.0000
# 6 vertex normals

vt 0.0043 0.0022 0.0000
vt 0.0396 0.0022 0.0000
vt 0.0396 0.0287 0.0000
vt 0.0043 0.0287 0.0000
vt 0.0043 0.0287 0.0100
vt 0.0043 0.0022 -0.0100
vt 0.0396 0.0022 -0.0100
vt 0.0396 0.0287 0.0100
vt 0.0396 0.0022 0.0050
vt 0.0396 0.0287 0.0050
vt 0.0043 0.0287 -0.0050
vt 0.0043 0.0022 -0.0050
vt 0.0043 0.0022 0.0050
vt 0.0396 0.0375 -0.0050
vt 0.0043 0.0375 -0.0050
vt 0.0043 0.0287 0.0050
vt 0.0396 0.0022 -0.0050
vt 0.0396 0.0287 -0.0050
vt 0.0396 0.0375 0.0050
vt 0.0043 0.0375 0.0050
# 20 texture coords

g cornerBR
s 2
f 9/21/7 10/22/7 11/23/7 12/24/7 
s 4
f 13/25/8 14/26/8 15/27/8 16/28/8 
s 8
f 9/29/9 12/30/9 14/31/9 13/32/9 
s 16
f 12/33/10 11/29/10 15/34/10 14/35/10 
s 32
f 11/36/11 10/33/11 16/37/11 15/38/11 
s 64
f 10/39/12 9/40/12 13/32/12 16/37/12 
# 6 polygons

#
# object borderBottom
#

v  0.0300 -0.0000 0.0200
v  0.0300 0.0200 0.0200
v  0.0450 0.0200 0.0200
v  0.0450 -0.0000 0.0200
v  0.0300 0.0000 0.9800
v  0.0450 0.0000 0.9800
v  0.0450 0.0200 0.9800
v  0.0300 0.0200 0.9800
# 8 vertices

vn 0.0000 -0.0000 -1.0000
vn 0.0000 0.0000 1.0000
vn 0.0000 -1.0000 0.0000
vn 1.0000 0.0000 -0.0000
vn 0.0000 1.0000 -0.0000
vn -1.0000 0.0000 -0.0000
# 6 vertex normals

vt 0.0012 0.0004 0.0000
vt 0.0317 0.0004 0.0000
vt 0.0317 0.0233 0.0000
vt 0.0012 0.0233 0.0000
vt 0.0316 0.0231 0.4800
vt 0.0316 0.0006 -0.4800
vt 0.0016 0.0006 -0.4800
vt 0.0016 0.0231 0.4800
vt 1.0000 0.0000 0.2400
vt 1.0000 0.0156 0.2400
vt 0.0000 0.0156 -0.2400
vt 0.0000 0.0000 -0.2400
vt 1.0006 -0.0002 0.2400
vt 1.0006 0.0206 0.2400
vt 0.0006 0.0206 -0.2400
vt 0.0006 -0.0002 -0.2400
vt 0.0000 0.0156 0.2400
vt 0.0000 0.0000 0.2400
vt 1.0000 0.0000 -0.2400
vt 1.0000 0.0156 -0.2400
vt 0.0000 0.0208 0.2400
vt 1.0000 0.0208 -0.2400
# 22 texture coords

g borderBottom
s 2
f 17/41/13 18/42/13 19/43/13 20/44/13 
s 4
f 21/45/14 22/46/14 23/47/14 24/48/14 
s 8
f 17/49/15 20/50/15 22/51/15 21/52/15 
s 16
f 20/53/16 19/54/16 23/55/16 22/56/16 
s 32
f 19/57/17 18/58/17 24/59/17 23/60/17 
s 64
f 18/61/18 17/58/18 21/59/18 24/62/18 
# 6 polygons

#
# object cornerBL
#

v  0.0300 -0.0000 1.0000
v  0.0300 -0.0000 0.9800
v  0.0450 -0.0000 0.9800
v  0.0450 -0.0000 1.0000
v  0.0300 0.0200 1.0000
v  0.0450 0.0200 1.0000
v  0.0450 0.0200 0.9800
v  0.0300 0.0200 0.9800
# 8 vertices

vn 0.0000 -1.0000 -0.0000
vn 0.0000 1.0000 -0.0000
vn 0.0000 0.0000 1.0000
vn 1.0000 0.0000 -0.0000
vn 0.0000 0.0000 -1.0000
vn -1.0000 0.0000 -0.0000
# 6 vertex normals

vt 0.0043 0.0022 0.0000
vt 0.0396 0.0022 0.0000
vt 0.0396 0.0287 0.0000
vt 0.0043 0.0287 0.0000
vt 0.0043 0.0287 0.0100
vt 0.0043 0.0022 -0.0100
vt 0.0396 0.0022 -0.0100
vt 0.0396 0.0287 0.0100
vt 0.0396 0.0022 0.0050
vt 0.0396 0.0287 0.0050
vt 0.0043 0.0287 -0.0050
vt 0.0043 0.0022 -0.0050
vt 0.0043 0.0022 0.0050
vt 0.0396 0.0375 -0.0050
vt 0.0043 0.0375 -0.0050
vt 0.0043 0.0287 0.0050
vt 0.0396 0.0022 -0.0050
vt 0.0396 0.0287 -0.0050
vt 0.0396 0.0375 0.0050
vt 0.0043 0.0375 0.0050
# 20 texture coords

g cornerBL
s 2
f 25/63/19 26/64/19 27/65/19 28/66/19 
s 4
f 29/67/20 30/68/20 31/69/20 32/70/20 
s 8
f 25/71/21 28/72/21 30/73/21 29/74/21 
s 16
f 28/75/22 27/71/22 31/76/22 30/77/22 
s 32
f 27/78/23 26/75/23 32/79/23 31/80/23 
s 64
f 26/81/24 25/82/24 29/74/24 32/79/24 
# 6 polygons

#
# object borderLeft
#

v  0.0300 0.0200 1.0000
v  0.0300 0.0200 0.9800
v  0.0450 0.0200 0.9800
v  0.0450 0.0200 1.0000
v  0.0300 0.9800 1.0000
v  0.0450 0.9800 1.0000
v  0.0450 0.9800 0.9800
v  0.0300 0.9800 0.9800
# 8 vertices

vn 0.0000 -1.0000 -0.0000
vn 0.0000 1.0000 -0.0000
vn 0.0000 0.0000 1.0000
vn 1.0000 0.0000 -0.0000
vn 0.0000 0.0000 -1.0000
vn -1.0000 0.0000 -0.0000
# 6 vertex normals

vt 0.0012 0.0004 0.0000
vt 0.0317 0.0004 0.0000
vt 0.0317 0.0233 0.0000
vt 0.0012 0.0233 0.0000
vt 0.0316 0.0231 0.4800
vt 0.0316 0.0006 -0.4800
vt 0.0016 0.0006 -0.4800
vt 0.0016 0.0231 0.4800
vt 1.0000 0.0000 0.2400
vt 1.0000 0.0156 0.2400
vt 0.0000 0.0156 -0.2400
vt 0.0000 0.0000 -0.2400
vt 1.0006 -0.0002 0.2400
vt 1.0006 0.0206 0.2400
vt 0.0006 0.0206 -0.2400
vt 0.0006 -0.0002 -0.2400
vt 0.0000 0.0156 0.2400
vt 0.0000 0.0000 0.2400
vt 1.0000 0.0000 -0.2400
vt 1.0000 0.0156 -0.2400
vt 0.0000 0.0208 0.2400
vt 1.0000 0.0208 -0.2400
# 22 texture coords

g borderLeft
s 2
f 33/83/25 34/84/25 35/85/25 36/86/25 
s 4
f 37/87/26 38/88/26 39/89/26 40/90/26 
s 8
f 33/91/27 36/92/27 38/93/27 37/94/27 
s 16
f 36/95/28 35/96/28 39/97/28 38/98/28 
s 32
f 35/99/29 34/100/29 40/101/29 39/102/29 
s 64
f 34/103/30 33/100/30 37/101/30 40/104/30 
# 6 polygons

#
# object cornerTL
#

v  0.0300 1.0000 1.0000
v  0.0300 0.9800 1.0000
v  0.0450 0.9800 1.0000
v  0.0450 1.0000 1.0000
v  0.0300 1.0000 0.9800
v  0.0450 1.0000 0.9800
v  0.0450 0.9800 0.9800
v  0.0300 0.9800 0.9800
# 8 vertices

vn 0.0000 -0.0000 1.0000
vn 0.0000 0.0000 -1.0000
vn 0.0000 1.0000 0.0000
vn 1.0000 0.0000 -0.0000
vn 0.0000 -1.0000 -0.0000
vn -1.0000 0.0000 -0.0000
# 6 vertex normals

vt 0.0043 0.0022 0.0000
vt 0.0396 0.0022 0.0000
vt 0.0396 0.0287 0.0000
vt 0.0043 0.0287 0.0000
vt 0.0043 0.0287 0.0100
vt 0.0043 0.0022 -0.0100
vt 0.0396 0.0022 -0.0100
vt 0.0396 0.0287 0.0100
vt 0.0396 0.0022 0.0050
vt 0.0396 0.0287 0.0050
vt 0.0043 0.0287 -0.0050
vt 0.0043 0.0022 -0.0050
vt 0.0043 0.0022 0.0050
vt 0.0396 0.0375 -0.0050
vt 0.0043 0.0375 -0.0050
vt 0.0043 0.0287 0.0050
vt 0.0396 0.0022 -0.0050
vt 0.0396 0.0287 -0.0050
vt 0.0396 0.0375 0.0050
vt 0.0043 0.0375 0.0050
# 20 texture coords

g cornerTL
s 2
f 41/105/31 42/106/31 43/107/31 44/108/31 
s 4
f 45/109/32 46/110/32 47/111/32 48/112/32 
s 8
f 41/113/33 44/114/33 46/115/33 45/116/33 
s 16
f 44/117/34 43/113/34 47/118/34 46/119/34 
s 32
f 43/120/35 42/117/35 48/121/35 47/122/35 
s 64
f 42/123/36 41/124/36 45/116/36 48/121/36 
# 6 polygons

#
# object borderTop
#

v  0.0300 1.0000 0.9800
v  0.0300 0.9800 0.9800
v  0.0450 0.9800 0.9800
v  0.0450 1.0000 0.9800
v  0.0300 1.0000 0.0200
v  0.0450 1.0000 0.0200
v  0.0450 0.9800 0.0200
v  0.0300 0.9800 0.0200
# 8 vertices

vn 0.0000 -0.0000 1.0000
vn 0.0000 0.0000 -1.0000
vn 0.0000 1.0000 0.0000
vn 1.0000 0.0000 -0.0000
vn 0.0000 -1.0000 -0.0000
vn -1.0000 0.0000 -0.0000
# 6 vertex normals

vt 0.0012 0.0004 0.0000
vt 0.0317 0.0004 0.0000
vt 0.0317 0.0233 0.0000
vt 0.0012 0.0233 0.0000
vt 0.0316 0.0231 0.4800
vt 0.0316 0.0006 -0.4800
vt 0.0016 0.0006 -0.4800
vt 0.0016 0.0231 0.4800
vt 1.0000 0.0000 0.2400
vt 1.0000 0.0156 0.2400
vt 0.0000 0.0156 -0.2400
vt 0.0000 0.0000 -0.2400
vt 1.0006 -0.0002 0.2400
vt 1.0006 0.0206 0.2400
vt 0.0006 0.0206 -0.2400
vt 0.0006 -0.0002 -0.2400
vt 0.0000 0.0156 0.2400
vt 0.0000 0.0000 0.2400
vt 1.0000 0.0000 -0.2400
vt 1.0000 0.0156 -0.2400
vt 0.0000 0.0208 0.2400
vt 1.0000 0.0208 -0.2400
# 22 texture coords

g borderTop
s 2
f 49/125/37 50/126/37 51/127/37 52/128/37 
s 4
f 53/129/38 54/130/38 55/131/38 56/132/38 
s 8
f 49/133/39 52/134/39 54/135/39 53/136/39 
s 16
f 52/137/40 51/138/40 55/139/40 54/140/40 
s 32
f 51/141/41 50/142/41 56/143/41 55/144/41 
s 64
f 50/145/42 49/142/42 53/143/42 56/146/42 
# 6 polygons

#
# object cornerTR
#

v  0.0300 1.0000 -0.0000
v  0.0300 1.0000 0.0200
v  0.0450 1.0000 0.0200
v  0.0450 1.0000 -0.0000
v  0.0300 0.9800 -0.0000
v  0.0450 0.9800 -0.0000
v  0.0450 0.9800 0.0200
v  0.0300 0.9800 0.0200
# 8 vertices

vn 0.0000 1.0000 -0.0000
vn 0.0000 -1.0000 0.0000
vn 0.0000 -0.0000 -1.0000
vn 1.0000 0.0000 -0.0000
vn 0.0000 0.0000 1.0000
vn -1.0000 0.0000 -0.0000
# 6 vertex normals

vt 0.0043 0.0022 0.0000
vt 0.0396 0.0022 0.0000
vt 0.0396 0.0287 0.0000
vt 0.0043 0.0287 0.0000
vt 0.0043 0.0287 0.0100
vt 0.0043 0.0022 -0.0100
vt 0.0396 0.0022 -0.0100
vt 0.0396 0.0287 0.0100
vt 0.0396 0.0022 0.0050
vt 0.0396 0.0287 0.0050
vt 0.0043 0.0287 -0.0050
vt 0.0043 0.0022 -0.0050
vt 0.0043 0.0022 0.0050
vt 0.0396 0.0375 -0.0050
vt 0.0043 0.0375 -0.0050
vt 0.0043 0.0287 0.0050
vt 0.0396 0.0022 -0.0050
vt 0.0396 0.0287 -0.0050
vt 0.0396 0.0375 0.0050
vt 0.0043 0.0375 0.0050
# 20 texture coords

g cornerTR
s 2
f 57/147/43 58/148/43 59/149/43 60/150/43 
s 4
f 61/151/44 62/152/44 63/153/44 64/154/44 
s 8
f 57/155/45 60/156/45 62/157/45 61/158/45 
s 16
f 60/159/46 59/155/46 63/160/46 62/161/46 
s 32
f 59/162/47 58/159/47 64/163/47 63/164/47 
s 64
f 58/165/48 57/166/48 61/158/48 64/163/48 
# 6 polygons

#
# object borderRight
#

v  0.0300 0.9800 -0.0000
v  0.0300 0.9800 0.0200
v  0.0450 0.9800 0.0200
v  0.0450 0.9800 -0.0000
v  0.0300 0.0200 0.0000
v  0.0450 0.0200 0.0000
v  0.0450 0.0200 0.0200
v  0.0300 0.0200 0.0200
# 8 vertices

vn 0.0000 1.0000 -0.0000
vn 0.0000 -1.0000 0.0000
vn 0.0000 -0.0000 -1.0000
vn 1.0000 0.0000 -0.0000
vn 0.0000 0.0000 1.0000
vn -1.0000 0.0000 -0.0000
# 6 vertex normals

vt 0.0012 0.0004 0.0000
vt 0.0317 0.0004 0.0000
vt 0.0317 0.0233 0.0000
vt 0.0012 0.0233 0.0000
vt 0.0316 0.0231 0.4800
vt 0.0316 0.0006 -0.4800
vt 0.0016 0.0006 -0.4800
vt 0.0016 0.0231 0.4800
vt 1.0000 0.0000 0.2400
vt 1.0000 0.0156 0.2400
vt 0.0000 0.0156 -0.2400
vt 0.0000 0.0000 -0.2400
vt 1.0006 -0.0002 0.2400
vt 1.0006 0.0206 0.2400
vt 0.0006 0.0206 -0.2400
vt 0.0006 -0.0002 -0.2400
vt 0.0000 0.0156 0.2400
vt 0.0000 0.0000 0.2400
vt 1.0000 0.0000 -0.2400
vt 1.0000 0.0156 -0.2400
vt 0.0000 0.0208 0.2400
vt 1.0000 0.0208 -0.2400
# 22 texture coords

g borderRight
s 2
f 65/167/49 66/168/49 67/169/49 68/170/49 
s 4
f 69/171/50 70/172/50 71/173/50 72/174/50 
s 8
f 65/175/51 68/176/51 70/177/51 69/178/51 
s 16
f 68/179/52 67/180/52 71/181/52 70/182/52 
s 32
f 67/183/53 66/184/53 72/185/53 71/186/53 
s 64
f 66/187/54 65/184/54 69/185/54 72/188/54 
# 6 polygons

#
# object pin
#

v  0.0301 -0.0032 0.0032
v  0.0301 -0.0032 -0.0032
v  0.0588 -0.0031 -0.0031
v  0.0588 -0.0031 0.0031
v  0.0707 -0.0100 -0.0100
v  0.0707 -0.0100 0.0100
v  0.0817 -0.0052 -0.0052
v  0.0817 -0.0052 0.0052
v  0.0301 0.0032 0.0032
v  0.0588 0.0031 0.0031
v  0.0588 0.0031 -0.0031
v  0.0301 0.0032 -0.0032
v  0.0707 0.0100 0.0100
v  0.0707 0.0100 -0.0100
v  0.0817 0.0052 0.0052
v  0.0817 0.0052 -0.0052
# 16 vertices

vn 0.0010 -1.0000 -0.0000
vn -0.2904 -0.9569 -0.0000
vn -0.0363 -0.9993 -0.0000
vn 0.4022 -0.9155 -0.0000
vn 0.0010 1.0000 -0.0000
vn -0.2904 0.9569 -0.0000
vn -0.0363 0.9993 -0.0000
vn 0.4022 0.9155 -0.0000
vn 0.0010 -0.0000 1.0000
vn -0.2904 -0.0000 0.9569
vn 0.0010 0.0000 1.0000
vn -0.0363 0.0000 0.9993
vn 0.4022 0.0000 0.9155
vn 1.0000 0.0000 -0.0000
vn 0.4022 -0.0000 -0.9155
vn -0.0363 -0.0000 -0.9993
vn -0.2904 0.0000 -0.9569
vn 0.0010 0.0000 -1.0000
# 18 vertex normals

vt 0.0387 0.8096 0.0017
vt 0.0393 0.7026 -0.0017
vt 0.5223 0.7058 -0.0017
vt 0.5217 0.8118 -0.0017
vt 0.7543 0.5918 -0.0017
vt 0.7524 0.9284 -0.0017
vt 0.9553 0.6740 0.0017
vt 0.9543 0.8485 -0.0017
vt 0.0352 0.7034 -0.0083
vt 0.5215 0.7061 -0.0083
vt 0.5210 0.8127 -0.0083
vt 0.0347 0.8111 0.0083
vt 0.7549 0.5910 -0.0083
vt 0.7534 0.9299 -0.0083
vt 0.9573 0.6735 -0.0083
vt 0.9565 0.8492 0.0083
vt 0.0350 0.7030 0.0050
vt 0.5213 0.7045 -0.0050
vt 0.5211 0.8112 -0.0050
vt 0.0348 0.8107 -0.0050
vt 0.7544 0.5889 -0.0050
vt 0.7537 0.9278 -0.0050
vt 0.9571 0.6709 0.0050
vt 0.9567 0.8466 -0.0050
vt 0.7581 0.3814 0.0050
vt 0.9337 0.3814 -0.0050
vt 0.9337 0.5570 0.0050
vt 0.7581 0.5570 -0.0050
vt 0.9541 0.8468 -0.0050
vt 0.7525 0.9277 -0.0050
vt 0.7528 0.5911 -0.0050
vt 0.9542 0.6723 0.0050
vt 0.5213 0.8122 -0.0050
vt 0.5214 0.7062 -0.0050
vt 0.0382 0.8122 0.0050
vt 0.0383 0.7053 -0.0050
# 36 texture coords

g pin
s 2
f 73/189/55 74/190/55 75/191/56 76/192/56 
f 76/192/56 75/191/56 77/193/57 78/194/57 
f 78/194/57 77/193/57 79/195/58 80/196/58 
s 4
f 81/197/59 82/198/60 83/199/60 84/200/59 
f 82/198/60 85/201/61 86/202/61 83/199/60 
f 85/201/61 87/203/62 88/204/62 86/202/61 
s 8
f 73/205/63 76/206/64 82/207/64 81/208/65 
f 76/206/64 78/209/66 85/210/66 82/207/64 
f 78/209/66 80/211/67 87/212/67 85/210/66 
s 16
f 80/213/68 79/214/68 88/215/68 87/216/68 
s 32
f 79/217/69 77/218/70 86/219/70 88/220/69 
f 77/218/70 75/221/71 83/222/71 86/219/70 
f 75/221/71 74/223/72 84/224/72 83/222/71 
# 13 polygons

