# 3ds Max Wavefront OBJ Exporter v0.97b - (c)2007 guruware
# File Created: 31.03.2014 02:33:50

#
# object pedestal
#

v  -0.2242 0.0000 -0.4288
v  -0.2042 0.2321 -0.2369
v  0.2042 0.2321 -0.2369
v  0.2242 0.0000 -0.4288
v  -0.2242 -0.0000 0.4288
v  0.2242 -0.0000 0.4288
v  0.2042 0.2321 0.2369
v  -0.2042 0.2321 0.2369
v  0.0346 0.0811 -0.0902
v  -0.0346 0.0811 -0.0902
v  -0.0346 0.0811 0.0902
v  0.0346 0.0811 0.0902
v  -0.0346 0.2340 -0.0902
v  0.0346 0.2340 -0.0902
v  0.0346 0.2340 0.0902
v  -0.0346 0.2340 0.0902
v  0.2074 0.2116 -0.0486
v  0.2230 0.0376 -0.2184
v  0.2230 0.0376 0.2144
v  0.2074 0.2116 0.0447
v  0.1845 0.2096 -0.0486
v  0.2001 0.0385 -0.2184
v  0.1845 0.2096 0.0447
v  0.2001 0.0385 0.2144
v  0.2157 0.0964 -0.0148
v  0.2092 0.1701 -0.0270
v  0.2092 0.1701 0.0230
v  0.2157 0.0964 0.0108
v  0.2053 0.0955 -0.0148
v  0.2053 0.0955 0.0108
v  0.1987 0.1691 0.0230
v  0.1987 0.1691 -0.0270
v  0.2157 0.0964 0.0910
v  0.2120 0.1382 0.0530
v  0.2015 0.1373 0.0530
v  0.2053 0.0955 0.0910
v  0.2120 0.1382 -0.0570
v  0.2157 0.0964 -0.0954
v  0.2053 0.0955 -0.0954
v  0.2015 0.1373 -0.0570
v  0.2211 0.0359 0.1230
v  0.2106 0.0350 0.1230
v  0.2106 0.0350 -0.1270
v  0.2211 0.0359 -0.1270
v  0.2106 0.0350 0.1530
v  0.2211 0.0359 0.1530
v  0.2211 0.0359 -0.1570
v  0.2106 0.0350 -0.1570
# 48 vertices

vn -0.0000 0.6373 -0.7706
vn 0.0000 0.6373 0.7706
vn -0.0000 -1.0000 -0.0000
vn 0.0000 1.0000 0.0000
vn -0.9963 0.0859 0.0000
vn -0.0000 0.9999 -0.0136
vn 0.0000 0.9999 0.0136
vn 0.0117 0.9999 0.0000
vn -0.0117 0.9999 0.0000
vn 0.0000 0.0000 1.0000
vn 1.0000 0.0000 -0.0000
vn 0.0000 0.0000 -1.0000
vn -1.0000 0.0000 -0.0000
vn 0.9954 0.0957 -0.0095
vn 0.9954 0.0956 0.0093
vn 0.9996 0.0298 -0.0000
vn 0.9874 0.1583 0.0000
vn 0.0174 -0.7004 0.7135
vn 0.0893 -0.9960 -0.0000
vn 0.0174 -0.7004 -0.7135
vn 0.0399 0.9992 0.0000
vn 0.9961 0.0885 0.0000
vn -0.9961 -0.0885 -0.0000
vn 0.0885 -0.9961 -0.0000
vn -0.0594 0.6684 0.7415
vn -0.0885 0.9961 0.0000
vn -0.0597 0.6720 -0.7381
vn -0.0606 0.6814 0.7294
vn -0.0606 0.6814 -0.7294
vn 0.0779 -0.8760 -0.4760
vn 0.0779 -0.8760 0.4760
vn -0.0633 0.7115 0.6998
vn -0.0631 0.7094 -0.7020
# 33 vertex normals

vt 0.9877 0.6891 0.0836
vt 0.9691 0.9829 -0.0836
vt 0.5895 0.9829 -0.0836
vt 0.5709 0.6891 0.0836
vt 0.9877 0.6891 0.4164
vt 0.5709 0.6891 0.4164
vt 0.5895 0.9829 -0.4164
vt 0.9691 0.9829 -0.4164
vt 0.0022 0.9975 -0.2500
vt 0.0022 0.6882 -0.2500
vt 0.5609 0.6882 0.2500
vt 0.5609 0.9975 0.2500
vt 0.8101 0.4333 0.2500
vt 0.8617 0.4333 0.2500
vt 0.8617 0.5679 -0.2500
vt 0.8101 0.5679 -0.2500
vt 0.7691 0.3117 0.2500
vt 0.9830 0.0471 0.2500
vt 0.0076 0.0490 -0.2500
vt 0.2265 0.3126 -0.2500
vt 0.2829 0.6871 0.2500
vt 0.2829 0.3126 0.2500
vt 0.4174 0.4681 -0.2500
vt 0.4174 0.5316 -0.2500
vt 0.7174 0.3126 -0.2500
vt 0.7174 0.6870 -0.2500
vt 0.5829 0.5316 -0.2500
vt 0.5829 0.4681 -0.2500
vt 0.8096 0.4687 0.2500
vt 0.8092 0.4307 -0.2500
vt 0.8935 0.4307 0.2500
vt 0.8939 0.4687 -0.2500
vt 0.8098 0.5671 0.2500
vt 0.8098 0.4698 -0.2500
vt 0.8922 0.4698 -0.2500
vt 0.8922 0.5671 0.2500
vt 0.8098 0.4325 -0.2500
vt 0.8922 0.4325 -0.2500
vt 0.8096 0.5682 -0.2500
vt 0.8939 0.5682 -0.2500
vt 0.9823 0.0470 0.2500
vt 0.7685 0.3116 0.2500
vt 0.5518 0.2880 -0.2500
vt 0.7437 0.0890 -0.2500
vt 0.2258 0.3124 -0.2500
vt 0.0071 0.0488 -0.2500
vt 0.2525 0.0908 -0.2500
vt 0.4459 0.2884 -0.2500
vt 0.6861 0.0420 -0.1832
vt 0.3152 0.0374 0.1832
vt 0.3157 0.0024 -0.1832
vt 0.6833 0.0071 0.1832
vt 0.5509 0.0381 -0.2490
vt 0.4143 0.0383 0.2490
vt 0.4142 0.0046 -0.2490
vt 0.5508 0.0044 0.2490
vt 0.3151 0.0030 0.3148
vt 0.6860 0.0050 -0.3148
vt 0.6826 0.0398 0.3148
vt 0.3149 0.0380 -0.3148
vt 0.2042 0.0069 0.2490
vt 0.7897 0.0060 -0.2490
vt 0.7897 0.0370 0.2490
vt 0.2043 0.0379 -0.2490
vt 0.5122 0.1733 0.0000
vt 0.5276 0.2664 0.0000
vt 0.4647 0.2664 0.0000
vt 0.4801 0.1733 0.0000
vt 0.5122 0.1733 -0.0052
vt 0.4801 0.1733 -0.0052
vt 0.4647 0.2664 -0.0052
vt 0.5276 0.2664 -0.0052
vt 0.4745 0.0265 -0.0026
vt 0.4471 0.0265 -0.0026
vt 0.4471 0.0152 -0.0026
vt 0.4745 0.0152 -0.0026
vt 0.4016 0.0151 0.0026
vt 0.4617 0.0151 -0.0026
vt 0.4617 0.0263 -0.0026
vt 0.4017 0.0263 -0.0026
vt 0.5082 0.0151 -0.0026
vt 0.5612 0.0151 -0.0026
vt 0.5612 0.0263 -0.0026
vt 0.5082 0.0263 -0.0026
vt 0.6076 0.0151 -0.0026
vt 0.6679 0.0151 0.0026
vt 0.6679 0.0263 -0.0026
vt 0.6076 0.0263 -0.0026
vt 0.6136 0.1733 -0.0000
vt 0.4270 0.2261 0.0000
vt 0.3791 0.1733 -0.0000
vt 0.3791 0.1733 0.0052
vt 0.5654 0.2261 -0.0052
vt 0.6136 0.1733 0.0052
vt 0.3100 0.0265 0.0026
vt 0.3100 0.0152 -0.0026
vt 0.6115 0.0152 -0.0026
vt 0.6115 0.0265 0.0026
vt 0.3096 0.0263 -0.0026
vt 0.3096 0.0151 -0.0026
vt 0.7596 0.0151 -0.0026
vt 0.7596 0.0263 -0.0026
vt 0.6534 0.0969 0.0000
vt 0.6912 0.0969 0.0000
vt 0.3011 0.0969 0.0000
vt 0.3389 0.0969 0.0000
vt 0.3389 0.0969 -0.0052
vt 0.3011 0.0969 -0.0052
vt 0.6912 0.0969 -0.0052
vt 0.6534 0.0969 -0.0052
# 110 texture coords

g pedestal
s 2
f 1/1/1 2/2/1 3/3/1 4/4/1 
s 4
f 5/5/2 6/6/2 7/7/2 8/8/2 
s 8
f 1/9/3 4/10/3 6/11/3 5/12/3 
s 32
f 9/13/4 10/14/4 11/15/4 12/16/4 
s 64
f 2/17/5 1/18/5 5/19/5 8/20/5 
s off
f 3/21/6 2/22/6 13/23/6 14/24/6 
f 8/25/7 7/26/7 15/27/7 16/28/7 
f 7/26/8 3/21/8 14/24/8 15/27/8 
f 2/22/9 8/25/9 16/28/9 13/23/9 
f 14/29/10 13/30/10 10/31/10 9/32/10 
f 13/33/11 16/34/11 11/35/11 10/36/11 
f 16/34/12 15/37/12 12/38/12 11/35/12 
f 15/39/13 14/29/13 9/32/13 12/40/13 
f 4/41/14 3/42/14 17/43/14 18/44/14 
f 7/45/15 6/46/15 19/47/15 20/48/15 
f 6/46/16 4/41/16 18/44/16 19/47/16 
f 3/42/17 7/45/17 20/48/17 17/43/17 
f 18/49/18 17/50/18 21/51/18 22/52/18 
f 17/53/19 20/54/19 23/55/19 21/56/19 
f 20/57/20 19/58/20 24/59/20 23/60/20 
f 19/61/21 18/62/21 22/63/21 24/64/21 
s 2
f 25/65/22 26/66/22 27/67/22 28/68/22 
s 4
f 29/69/23 30/70/23 31/71/23 32/72/23 
s 8
f 25/73/24 28/74/24 30/75/24 29/76/24 
s 16
f 33/77/25 34/78/25 35/79/25 36/80/25 
s 32
f 27/81/26 26/82/26 32/83/26 31/84/26 
s 64
f 37/85/27 38/86/27 39/87/27 40/88/27 
s off
f 26/66/22 25/65/22 38/89/22 37/66/22 
f 28/68/22 27/67/22 34/90/22 33/91/22 
f 31/71/23 30/70/23 36/92/23 35/71/23 
f 29/69/23 32/72/23 40/93/23 39/94/23 
f 27/81/28 31/84/28 35/79/28 34/78/28 
f 32/83/29 26/82/29 37/85/29 40/88/29 
f 30/75/30 28/74/30 41/95/30 42/96/30 
f 25/73/31 29/76/31 43/97/31 44/98/31 
f 33/77/32 36/80/32 45/99/32 46/100/32 
f 39/87/33 38/86/33 47/101/33 48/102/33 
f 38/89/22 25/65/22 44/103/22 47/104/22 
f 28/68/22 33/91/22 46/105/22 41/106/22 
f 36/92/23 30/70/23 42/107/23 45/108/23 
f 29/69/23 39/94/23 48/109/23 43/110/23 
# 41 polygons

#
# object color
#

v  0.2001 0.0385 -0.2184
v  0.1845 0.2096 -0.0486
v  0.1845 0.2096 0.0447
v  0.2001 0.0385 0.2144
# 4 vertices

vn 0.9959 0.0909 -0.0000
# 1 vertex normals

vt 0.9914 0.3300 0.2490
vt 0.6031 0.7228 -0.2490
vt 0.3897 0.7228 0.2490
vt 0.0015 0.3298 -0.2490
# 4 texture coords

g color
s 16
f 49/111/34 50/112/34 51/113/34 52/114/34 
# 1 polygons

